<svg xmlns="http://www.w3.org/2000/svg" width="489" height="84" viewBox="0 0 489 84">
  <g id="cus" transform="translate(-60 -344)">
    <g id="zinsta" transform="translate(0 128)">
      <g id="Group_2277" data-name="Group 2277" transform="translate(0 128)">
        <rect id="Rectangle_254" data-name="Rectangle 254" width="489" height="84" rx="9" transform="translate(60 88)" fill="#ebebeb"/>
        <text id="Contact_us" data-name="Contact us" transform="translate(186 146)" fill="#2c3e50" font-size="38" font-family="SegoeUI, Segoe UI"><tspan x="0" y="0">Contact us</tspan></text>
      </g>
    </g>
    <g id="phone-book" transform="translate(37.334 363)">
      <g id="Group_2279" data-name="Group 2279" transform="translate(42.666)">
        <path id="Path_186" data-name="Path 186" d="M77.562,0H48.482A3.882,3.882,0,0,0,44.6,3.877V7.755h-.969a.969.969,0,1,0,0,1.939h3.877a.969.969,0,0,1,0,1.939H45.574a.969.969,0,0,0-.969.969v4.847h-.969a.969.969,0,1,0,0,1.939h3.877a.969.969,0,1,1,0,1.939H45.574a.969.969,0,0,0-.969.969v4.847h-.969a.969.969,0,1,0,0,1.939h3.877a.969.969,0,0,1,0,1.939H45.574a.969.969,0,0,0-.969.969v4.847h-.969a.969.969,0,1,0,0,1.939h3.877a.969.969,0,0,1,0,1.939H45.574a.969.969,0,0,0-.969.969v.969a3.882,3.882,0,0,0,3.877,3.877h29.08a3.882,3.882,0,0,0,3.877-3.877V3.877A3.882,3.882,0,0,0,77.562,0ZM75.624,30.8a2.158,2.158,0,0,1-2.154,2.154,21.134,21.134,0,0,1-21.11-21.11,2.158,2.158,0,0,1,2.154-2.154H58.66a2.157,2.157,0,0,1,2.154,2.154,12.537,12.537,0,0,0,.625,3.927,2.164,2.164,0,0,1-.53,2.2l-1.7,2.261A13.622,13.622,0,0,0,65.084,26.1l2.363-1.784a2.085,2.085,0,0,1,2.109-.427,12.5,12.5,0,0,0,3.913.622,2.157,2.157,0,0,1,2.154,2.154V30.8Z" transform="translate(-42.666)" fill="#2c3e50"/>
      </g>
    </g>
  </g>
</svg>
