<svg xmlns="http://www.w3.org/2000/svg" width="197.682" height="159" viewBox="0 0 197.682 159">
  <g id="error" transform="translate(-89 -1015)">
    <g id="Group_73" data-name="Group 73" transform="translate(136.299 1071.249)">
      <g id="Group_76" data-name="Group 76">
        <g id="shop">
          <g id="Ellipse_27" data-name="Ellipse 27" transform="translate(-0.299 -0.249)" fill="none" stroke="#fd664e" stroke-width="2">
            <ellipse cx="52" cy="51.5" rx="52" ry="51.5" stroke="none"/>
            <ellipse cx="52" cy="51.5" rx="51" ry="50.5" fill="none"/>
          </g>
        </g>
        <g id="Group_75" data-name="Group 75" transform="matrix(1, 0.017, -0.017, 1, -3.083, -4.024)">
          <path id="Path_97" data-name="Path 97" d="M-10243.113-13642.307l49.039-47.2" transform="translate(10274.314 13719.753)" fill="none" stroke="#fd664e" stroke-linecap="round" stroke-width="2"/>
          <path id="Path_104" data-name="Path 104" d="M-10243.113-13642.307l49.039-47.2" transform="matrix(-0.105, -0.995, 0.995, -0.105, 12579.14, -11536.987)" fill="none" stroke="#fd664e" stroke-linecap="round" stroke-width="2"/>
        </g>
      </g>
    </g>
    <g id="stars" transform="translate(89 1015)" opacity="0.18">
      <path id="Path_98" data-name="Path 98" d="M12.686,28.145l.976,2.645a.253.253,0,0,0,.475,0l.976-2.645a7.8,7.8,0,0,1,4.619-4.619l2.645-.976a.253.253,0,0,0,0-.475L19.732,21.1a7.8,7.8,0,0,1-4.619-4.619l-.976-2.645a.253.253,0,0,0-.475,0l-.976,2.645A7.8,7.8,0,0,1,8.067,21.1l-2.645.976a.253.253,0,0,0,0,.475l2.645.976A7.8,7.8,0,0,1,12.686,28.145Z" transform="translate(-5.256 -11.631)" fill="#fd664e"/>
      <path id="Path_99" data-name="Path 99" d="M101.234,137.731l-2.645-.976a7.8,7.8,0,0,1-4.619-4.619l-.976-2.645a.253.253,0,0,0-.475,0l-.976,2.645a7.8,7.8,0,0,1-4.619,4.619l-2.645.976a.253.253,0,0,0,0,.475l2.646.976a7.8,7.8,0,0,1,4.619,4.619l.976,2.645a.253.253,0,0,0,.475,0l.976-2.645a7.8,7.8,0,0,1,4.619-4.619l2.645-.976a.253.253,0,0,0,0-.475Z" transform="translate(-72.356 -110.044)" fill="#fd664e"/>
      <path id="Path_100" data-name="Path 100" d="M224.37,77.208l-1.8-.663a5.3,5.3,0,0,1-3.139-3.139l-.663-1.8a.172.172,0,0,0-.323,0l-.663,1.8a5.3,5.3,0,0,1-3.139,3.139l-1.8.663a.172.172,0,0,0,0,.323l1.8.663a5.3,5.3,0,0,1,3.139,3.139l.663,1.8a.172.172,0,0,0,.323,0l.663-1.8a5.3,5.3,0,0,1,3.139-3.139l1.8-.663a.172.172,0,0,0,0-.323Z" transform="translate(-181.801 -60.836)" fill="#fd664e"/>
      <path id="Path_101" data-name="Path 101" d="M215.244,245.811l-1.254-.463a3.7,3.7,0,0,1-2.19-2.19l-.463-1.254a.12.12,0,0,0-.225,0l-.463,1.254a3.7,3.7,0,0,1-2.19,2.19l-1.254.463a.12.12,0,0,0,0,.225l1.254.463a3.7,3.7,0,0,1,2.19,2.19l.463,1.254a.12.12,0,0,0,.225,0l.463-1.254a3.7,3.7,0,0,1,2.19-2.19l1.254-.463a.12.12,0,0,0,0-.225Z" transform="translate(-177.03 -205.773)" fill="#fd664e"/>
      <path id="Path_102" data-name="Path 102" d="M153.21,3.985l-1.254-.462a3.7,3.7,0,0,1-2.19-2.19L149.3.079a.12.12,0,0,0-.225,0l-.462,1.254a3.7,3.7,0,0,1-2.19,2.19l-1.254.462a.12.12,0,0,0,0,.225l1.254.463a3.7,3.7,0,0,1,2.19,2.19l.462,1.254a.12.12,0,0,0,.225,0l.463-1.254a3.7,3.7,0,0,1,2.19-2.19l1.254-.463a.12.12,0,0,0,0-.225Z" transform="translate(-124.245 0)" fill="#fd664e"/>
      <path id="Path_103" data-name="Path 103" d="M38.094,222.655l-1.577-.581a4.652,4.652,0,0,1-2.755-2.754l-.582-1.577a.151.151,0,0,0-.283,0l-.582,1.577a4.651,4.651,0,0,1-2.755,2.755l-1.577.581a.151.151,0,0,0,0,.283l1.577.582a4.651,4.651,0,0,1,2.754,2.754l.582,1.577a.151.151,0,0,0,.283,0l.582-1.578a4.651,4.651,0,0,1,2.754-2.754l1.578-.582a.151.151,0,0,0,0-.283Z" transform="translate(-24.511 -185.194)" fill="#fd664e"/>
    </g>
    <g id="stars-2" data-name="stars" transform="translate(244 1015)" opacity="0.18">
      <path id="Path_98-2" data-name="Path 98" d="M12.686,28.145l.976,2.645a.253.253,0,0,0,.475,0l.976-2.645a7.8,7.8,0,0,1,4.619-4.619l2.645-.976a.253.253,0,0,0,0-.475L19.732,21.1a7.8,7.8,0,0,1-4.619-4.619l-.976-2.645a.253.253,0,0,0-.475,0l-.976,2.645A7.8,7.8,0,0,1,8.067,21.1l-2.645.976a.253.253,0,0,0,0,.475l2.645.976A7.8,7.8,0,0,1,12.686,28.145Z" transform="translate(-5.256 -11.631)" fill="#fd664e"/>
      <path id="Path_99-2" data-name="Path 99" d="M101.234,137.731l-2.645-.976a7.8,7.8,0,0,1-4.619-4.619l-.976-2.645a.253.253,0,0,0-.475,0l-.976,2.645a7.8,7.8,0,0,1-4.619,4.619l-2.645.976a.253.253,0,0,0,0,.475l2.646.976a7.8,7.8,0,0,1,4.619,4.619l.976,2.645a.253.253,0,0,0,.475,0l.976-2.645a7.8,7.8,0,0,1,4.619-4.619l2.645-.976a.253.253,0,0,0,0-.475Z" transform="translate(-72.356 -110.044)" fill="#fd664e"/>
      <path id="Path_100-2" data-name="Path 100" d="M224.37,77.208l-1.8-.663a5.3,5.3,0,0,1-3.139-3.139l-.663-1.8a.172.172,0,0,0-.323,0l-.663,1.8a5.3,5.3,0,0,1-3.139,3.139l-1.8.663a.172.172,0,0,0,0,.323l1.8.663a5.3,5.3,0,0,1,3.139,3.139l.663,1.8a.172.172,0,0,0,.323,0l.663-1.8a5.3,5.3,0,0,1,3.139-3.139l1.8-.663a.172.172,0,0,0,0-.323Z" transform="translate(-181.801 -60.836)" fill="#fd664e"/>
      <path id="Path_101-2" data-name="Path 101" d="M215.244,245.811l-1.254-.463a3.7,3.7,0,0,1-2.19-2.19l-.463-1.254a.12.12,0,0,0-.225,0l-.463,1.254a3.7,3.7,0,0,1-2.19,2.19l-1.254.463a.12.12,0,0,0,0,.225l1.254.463a3.7,3.7,0,0,1,2.19,2.19l.463,1.254a.12.12,0,0,0,.225,0l.463-1.254a3.7,3.7,0,0,1,2.19-2.19l1.254-.463a.12.12,0,0,0,0-.225Z" transform="translate(-177.03 -205.773)" fill="#fd664e"/>
      <path id="Path_102-2" data-name="Path 102" d="M153.21,3.985l-1.254-.462a3.7,3.7,0,0,1-2.19-2.19L149.3.079a.12.12,0,0,0-.225,0l-.462,1.254a3.7,3.7,0,0,1-2.19,2.19l-1.254.462a.12.12,0,0,0,0,.225l1.254.463a3.7,3.7,0,0,1,2.19,2.19l.462,1.254a.12.12,0,0,0,.225,0l.463-1.254a3.7,3.7,0,0,1,2.19-2.19l1.254-.463a.12.12,0,0,0,0-.225Z" transform="translate(-124.245 0)" fill="#fd664e"/>
      <path id="Path_103-2" data-name="Path 103" d="M38.094,222.655l-1.577-.581a4.652,4.652,0,0,1-2.755-2.754l-.582-1.577a.151.151,0,0,0-.283,0l-.582,1.577a4.651,4.651,0,0,1-2.755,2.755l-1.577.581a.151.151,0,0,0,0,.283l1.577.582a4.651,4.651,0,0,1,2.754,2.754l.582,1.577a.151.151,0,0,0,.283,0l.582-1.578a4.651,4.651,0,0,1,2.754-2.754l1.578-.582a.151.151,0,0,0,0-.283Z" transform="translate(-24.511 -185.194)" fill="#fd664e"/>
    </g>
  </g>
</svg>
