<svg xmlns="http://www.w3.org/2000/svg" width="489" height="84" viewBox="0 0 489 84">
  <g id="register" transform="translate(-79 -840)">
    <g id="login" transform="translate(11 189)">
      <g id="log" transform="translate(8 179)">
        <g id="log-2" data-name="log" transform="translate(0 128)">
          <g id="zinsta" transform="translate(0 128)">
            <g id="Group_2277" data-name="Group 2277" transform="translate(0 128)">
              <rect id="Rectangle_254" data-name="Rectangle 254" width="489" height="84" rx="9" transform="translate(60 88)" fill="#ebebeb"/>
              <text id="Register-2" data-name="Register" transform="translate(165 146)" fill="#2c3e50" font-size="38" font-family="SegoeUI, Segoe UI"><tspan x="0" y="0">Register</tspan></text>
            </g>
          </g>
        </g>
      </g>
    </g>
    <g id="add-user-symbol-of-interface" transform="translate(81.5 855)">
      <path id="Path_189" data-name="Path 189" d="M47.336,25.846A12.923,12.923,0,1,0,34.413,12.923,12.923,12.923,0,0,0,47.336,25.846Zm6.122-7.794c-.588,1.944-3.106,3.4-6.124,3.4S41.8,20,41.209,18.053Zm21.061,26.51v1.783a.891.891,0,0,1-.891.891H68.28v5.348a.891.891,0,0,1-.891.891H65.606a.891.891,0,0,1-.891-.891V47.236H59.368a.891.891,0,0,1-.891-.891V44.563a.891.891,0,0,1,.891-.891h5.348V38.324a.891.891,0,0,1,.891-.891h1.783a.891.891,0,0,1,.891.891v5.348h5.348A.891.891,0,0,1,74.519,44.563Zm-17.825,0v1.783a2.64,2.64,0,0,0,.351,1.3,89.921,89.921,0,0,1-9.709.484c-12.461,0-18.558-2.036-20.794-3.031A1.93,1.93,0,0,1,25.5,43.475v-4.26A12.515,12.515,0,0,1,36.562,26.827a1.035,1.035,0,0,1,.622.17,17.243,17.243,0,0,0,20.3,0,1.035,1.035,0,0,1,.622-.17,12.534,12.534,0,0,1,10.638,9.207,2.643,2.643,0,0,0-1.358-.383H65.606a2.677,2.677,0,0,0-2.674,2.674v3.565H59.368A2.677,2.677,0,0,0,56.694,44.563Z" fill="#2c3e50"/>
    </g>
  </g>
</svg>
