<svg xmlns="http://www.w3.org/2000/svg" width="489" height="84" viewBox="0 0 489 84">
  <g id="sell" transform="translate(-79 -956)">
    <g id="Group_2277" data-name="Group 2277" transform="translate(19 868)">
      <rect id="Rectangle_254" data-name="Rectangle 254" width="489" height="84" rx="9" transform="translate(60 88)" fill="#f0ff21"/>
      <text id="Sell_on_Tybofashion" data-name="Sell on Tybofashion" transform="translate(154 146)" fill="#2c3e50" font-size="38" font-family="SegoeUI-Bold, Segoe UI" font-weight="700"><tspan x="0" y="0">Sell on Tybofashion</tspan></text>
    </g>
    <g id="shop" transform="translate(103 945.95)">
      <g id="Group_80" data-name="Group 80" transform="translate(0 31.05)">
        <path id="Path_111" data-name="Path 111" d="M257.747,263.75h-6.381a3.17,3.17,0,0,0-3.166,3.166v4.893a3.17,3.17,0,0,0,3.166,3.166h6.381a3.17,3.17,0,0,0,3.166-3.166v-4.893A3.17,3.17,0,0,0,257.747,263.75Zm.864,8.06a.866.866,0,0,1-.864.864h-6.381a.866.866,0,0,1-.864-.864v-4.893a.866.866,0,0,1,.864-.864h6.381a.866.866,0,0,1,.864.864Z" transform="translate(-224.385 -241.422)" fill="#2c3e50" stroke="#2c3e50" stroke-width="1"/>
        <path id="Path_112" data-name="Path 112" d="M46.958,44.483a1.069,1.069,0,0,0-.154-.566L39.82,31.635a1.158,1.158,0,0,0-1-.585H8.127a1.138,1.138,0,0,0-1,.585L.154,43.917A1.164,1.164,0,0,0,0,44.483a6.736,6.736,0,0,0,4.03,6.16V70.9A1.155,1.155,0,0,0,5.181,72.05H41.767A1.155,1.155,0,0,0,42.919,70.9V50.787a.507.507,0,0,0-.01-.125A6.754,6.754,0,0,0,46.958,44.483ZM8.8,33.362H38.15l5.46,9.6H3.349ZM33.42,45.26a4.425,4.425,0,0,1-8.712,0Zm-11.159,0a4.431,4.431,0,0,1-8.722,0Zm-19.881,0H11.1a4.431,4.431,0,0,1-8.722,0ZM19.344,69.747H12.723V57.321a1.64,1.64,0,0,1,1.641-1.641h3.349a1.64,1.64,0,0,1,1.641,1.641V69.747Zm21.272,0H21.647V57.321A3.95,3.95,0,0,0,17.7,53.378H14.354a3.95,3.95,0,0,0-3.944,3.944V69.757H6.333V51.209c.134.01.269.01.4.01a6.727,6.727,0,0,0,5.584-2.974,6.729,6.729,0,0,0,11.169,0,6.711,6.711,0,0,0,11.149,0,6.727,6.727,0,0,0,5.584,2.974c.134,0,.259-.01.393-.01V69.747Zm-.393-20.831a4.423,4.423,0,0,1-4.356-3.646h8.722A4.45,4.45,0,0,1,40.223,48.916Z" transform="translate(0 -31.05)" fill="#2c3e50" stroke="#2c3e50" stroke-width="1"/>
      </g>
    </g>
  </g>
</svg>
