<svg xmlns="http://www.w3.org/2000/svg" width="244" height="244" viewBox="0 0 244 244">
  <g id="shop" transform="translate(-87 -54)">
    <g id="Ellipse_27" data-name="Ellipse 27" transform="translate(87 54)" fill="#80858b" stroke="#80858b" stroke-width="1">
      <circle cx="122" cy="122" r="122" stroke="none"/>
      <circle cx="122" cy="122" r="121.5" fill="none"/>
    </g>
    <g id="shop-2" data-name="shop" transform="translate(135 79.95)">
      <g id="Group_71" data-name="Group 71" transform="translate(0 31.05)">
        <path id="Path_94" data-name="Path 94" d="M278.423,263.75h-20.2A10.034,10.034,0,0,0,248.2,273.774v15.491a10.034,10.034,0,0,0,10.024,10.024h20.2a10.034,10.034,0,0,0,10.024-10.024V273.774A10.034,10.034,0,0,0,278.423,263.75Zm2.734,25.515A2.742,2.742,0,0,1,278.423,292h-20.2a2.742,2.742,0,0,1-2.734-2.734V273.774a2.742,2.742,0,0,1,2.734-2.734h20.2a2.742,2.742,0,0,1,2.734,2.734Z" transform="translate(-172.81 -193.068)" fill="#fff"/>
        <path id="Path_95" data-name="Path 95" d="M148.654,73.575a3.383,3.383,0,0,0-.486-1.792L126.055,32.9A3.664,3.664,0,0,0,122.9,31.05H25.727A3.6,3.6,0,0,0,22.568,32.9L.486,71.783A3.685,3.685,0,0,0,0,73.575a21.322,21.322,0,0,0,12.757,19.5V157.2a3.656,3.656,0,0,0,3.645,3.645H132.222a3.656,3.656,0,0,0,3.645-3.645V93.531a1.6,1.6,0,0,0-.03-.395A21.382,21.382,0,0,0,148.654,73.575Zm-120.8-35.2H120.77l17.283,30.405H10.6ZM105.8,76.035a14.009,14.009,0,0,1-27.58,0Zm-35.326,0a14.027,14.027,0,0,1-27.611,0Zm-62.937,0H35.144a14.027,14.027,0,0,1-27.611,0Zm53.7,77.517H40.277V114.216a5.192,5.192,0,0,1,5.194-5.194h10.6a5.192,5.192,0,0,1,5.194,5.194v39.335Zm67.341,0H68.526V114.216a12.5,12.5,0,0,0-12.484-12.484h-10.6a12.5,12.5,0,0,0-12.484,12.484v39.366H20.047V94.867c.425.03.85.03,1.276.03A21.3,21.3,0,0,0,39,85.482a21.3,21.3,0,0,0,35.356,0,21.246,21.246,0,0,0,35.3,0A21.3,21.3,0,0,0,127.331,94.9c.425,0,.82-.03,1.245-.03v58.684Zm-1.245-65.944a14,14,0,0,1-13.79-11.542h27.611A14.087,14.087,0,0,1,127.331,87.608Z" transform="translate(0 -31.05)" fill="#fff"/>
      </g>
    </g>
  </g>
</svg>
