<svg xmlns="http://www.w3.org/2000/svg" xmlns:xlink="http://www.w3.org/1999/xlink" width="197.682" height="115.719" viewBox="0 0 197.682 115.719">
  <defs>
    <linearGradient id="linear-gradient" x1="0.249" y1="0.579" x2="1.386" y2="-0.558" gradientUnits="objectBoundingBox">
      <stop offset="0" stop-color="#ffb92d"/>
      <stop offset="1" stop-color="#f59500"/>
    </linearGradient>
    <linearGradient id="linear-gradient-2" x1="0.4" y1="0.428" x2="0.743" y2="0.085" xlink:href="#linear-gradient"/>
    <linearGradient id="linear-gradient-3" x1="-0.001" y1="0.508" x2="0.996" y2="0.508" gradientUnits="objectBoundingBox">
      <stop offset="0" stop-color="#fff465"/>
      <stop offset="1" stop-color="#ffe600"/>
    </linearGradient>
    <linearGradient id="linear-gradient-4" x1="0.677" y1="-0.098" x2="-0.333" y2="0.668" gradientUnits="objectBoundingBox">
      <stop offset="0" stop-color="#be3f45" stop-opacity="0"/>
      <stop offset="1" stop-color="#be3f45"/>
    </linearGradient>
    <linearGradient id="linear-gradient-5" x1="0.599" y1="-2.731" x2="0.05" y2="-2.008" xlink:href="#linear-gradient-4"/>
  </defs>
  <g id="warn" transform="translate(-85 -1561)">
    <g id="done" transform="translate(23 1399)">
      <g id="stars" transform="translate(62 162)" opacity="0.18">
        <path id="Path_98" data-name="Path 98" d="M12.686,28.145l.976,2.645a.253.253,0,0,0,.475,0l.976-2.645a7.8,7.8,0,0,1,4.619-4.619l2.645-.976a.253.253,0,0,0,0-.475L19.732,21.1a7.8,7.8,0,0,1-4.619-4.619l-.976-2.645a.253.253,0,0,0-.475,0l-.976,2.645A7.8,7.8,0,0,1,8.067,21.1l-2.645.976a.253.253,0,0,0,0,.475l2.645.976A7.8,7.8,0,0,1,12.686,28.145Z" transform="translate(-5.256 -11.631)" fill="#f1a625"/>
        <path id="Path_99" data-name="Path 99" d="M101.234,137.731l-2.645-.976a7.8,7.8,0,0,1-4.619-4.619l-.976-2.645a.253.253,0,0,0-.475,0l-.976,2.645a7.8,7.8,0,0,1-4.619,4.619l-2.645.976a.253.253,0,0,0,0,.475l2.646.976a7.8,7.8,0,0,1,4.619,4.619l.976,2.645a.253.253,0,0,0,.475,0l.976-2.645a7.8,7.8,0,0,1,4.619-4.619l2.645-.976a.253.253,0,0,0,0-.475Z" transform="translate(-72.356 -110.044)" fill="#f1a625"/>
        <path id="Path_100" data-name="Path 100" d="M224.37,77.208l-1.8-.663a5.3,5.3,0,0,1-3.139-3.139l-.663-1.8a.172.172,0,0,0-.323,0l-.663,1.8a5.3,5.3,0,0,1-3.139,3.139l-1.8.663a.172.172,0,0,0,0,.323l1.8.663a5.3,5.3,0,0,1,3.139,3.139l.663,1.8a.172.172,0,0,0,.323,0l.663-1.8a5.3,5.3,0,0,1,3.139-3.139l1.8-.663a.172.172,0,0,0,0-.323Z" transform="translate(-181.801 -60.836)" fill="#f1a625"/>
        <path id="Path_101" data-name="Path 101" d="M215.244,245.811l-1.254-.463a3.7,3.7,0,0,1-2.19-2.19l-.463-1.254a.12.12,0,0,0-.225,0l-.463,1.254a3.7,3.7,0,0,1-2.19,2.19l-1.254.463a.12.12,0,0,0,0,.225l1.254.463a3.7,3.7,0,0,1,2.19,2.19l.463,1.254a.12.12,0,0,0,.225,0l.463-1.254a3.7,3.7,0,0,1,2.19-2.19l1.254-.463a.12.12,0,0,0,0-.225Z" transform="translate(-177.03 -205.773)" fill="#f1a625"/>
        <path id="Path_102" data-name="Path 102" d="M153.21,3.985l-1.254-.462a3.7,3.7,0,0,1-2.19-2.19L149.3.079a.12.12,0,0,0-.225,0l-.462,1.254a3.7,3.7,0,0,1-2.19,2.19l-1.254.462a.12.12,0,0,0,0,.225l1.254.463a3.7,3.7,0,0,1,2.19,2.19l.462,1.254a.12.12,0,0,0,.225,0l.463-1.254a3.7,3.7,0,0,1,2.19-2.19l1.254-.463a.12.12,0,0,0,0-.225Z" transform="translate(-124.245 0)" fill="#f1a625"/>
        <path id="Path_103" data-name="Path 103" d="M38.094,222.655l-1.577-.581a4.652,4.652,0,0,1-2.755-2.754l-.582-1.577a.151.151,0,0,0-.283,0l-.582,1.577a4.651,4.651,0,0,1-2.755,2.755l-1.577.581a.151.151,0,0,0,0,.283l1.577.582a4.651,4.651,0,0,1,2.754,2.754l.582,1.577a.151.151,0,0,0,.283,0l.582-1.578a4.651,4.651,0,0,1,2.754-2.754l1.578-.582a.151.151,0,0,0,0-.283Z" transform="translate(-24.511 -185.194)" fill="#f1a625"/>
      </g>
      <g id="stars-2" data-name="stars" transform="translate(217 162)" opacity="0.18">
        <path id="Path_98-2" data-name="Path 98" d="M12.686,28.145l.976,2.645a.253.253,0,0,0,.475,0l.976-2.645a7.8,7.8,0,0,1,4.619-4.619l2.645-.976a.253.253,0,0,0,0-.475L19.732,21.1a7.8,7.8,0,0,1-4.619-4.619l-.976-2.645a.253.253,0,0,0-.475,0l-.976,2.645A7.8,7.8,0,0,1,8.067,21.1l-2.645.976a.253.253,0,0,0,0,.475l2.645.976A7.8,7.8,0,0,1,12.686,28.145Z" transform="translate(-5.256 -11.631)" fill="#f1a625"/>
        <path id="Path_99-2" data-name="Path 99" d="M101.234,137.731l-2.645-.976a7.8,7.8,0,0,1-4.619-4.619l-.976-2.645a.253.253,0,0,0-.475,0l-.976,2.645a7.8,7.8,0,0,1-4.619,4.619l-2.645.976a.253.253,0,0,0,0,.475l2.646.976a7.8,7.8,0,0,1,4.619,4.619l.976,2.645a.253.253,0,0,0,.475,0l.976-2.645a7.8,7.8,0,0,1,4.619-4.619l2.645-.976a.253.253,0,0,0,0-.475Z" transform="translate(-72.356 -110.044)" fill="#f1a625"/>
        <path id="Path_100-2" data-name="Path 100" d="M224.37,77.208l-1.8-.663a5.3,5.3,0,0,1-3.139-3.139l-.663-1.8a.172.172,0,0,0-.323,0l-.663,1.8a5.3,5.3,0,0,1-3.139,3.139l-1.8.663a.172.172,0,0,0,0,.323l1.8.663a5.3,5.3,0,0,1,3.139,3.139l.663,1.8a.172.172,0,0,0,.323,0l.663-1.8a5.3,5.3,0,0,1,3.139-3.139l1.8-.663a.172.172,0,0,0,0-.323Z" transform="translate(-181.801 -60.836)" fill="#f1a625"/>
        <path id="Path_101-2" data-name="Path 101" d="M215.244,245.811l-1.254-.463a3.7,3.7,0,0,1-2.19-2.19l-.463-1.254a.12.12,0,0,0-.225,0l-.463,1.254a3.7,3.7,0,0,1-2.19,2.19l-1.254.463a.12.12,0,0,0,0,.225l1.254.463a3.7,3.7,0,0,1,2.19,2.19l.463,1.254a.12.12,0,0,0,.225,0l.463-1.254a3.7,3.7,0,0,1,2.19-2.19l1.254-.463a.12.12,0,0,0,0-.225Z" transform="translate(-177.03 -205.773)" fill="#f1a625"/>
        <path id="Path_102-2" data-name="Path 102" d="M153.21,3.985l-1.254-.462a3.7,3.7,0,0,1-2.19-2.19L149.3.079a.12.12,0,0,0-.225,0l-.462,1.254a3.7,3.7,0,0,1-2.19,2.19l-1.254.462a.12.12,0,0,0,0,.225l1.254.463a3.7,3.7,0,0,1,2.19,2.19l.462,1.254a.12.12,0,0,0,.225,0l.463-1.254a3.7,3.7,0,0,1,2.19-2.19l1.254-.463a.12.12,0,0,0,0-.225Z" transform="translate(-124.245 0)" fill="#f1a625"/>
        <path id="Path_103-2" data-name="Path 103" d="M38.094,222.655l-1.577-.581a4.652,4.652,0,0,1-2.755-2.754l-.582-1.577a.151.151,0,0,0-.283,0l-.582,1.577a4.651,4.651,0,0,1-2.755,2.755l-1.577.581a.151.151,0,0,0,0,.283l1.577.582a4.651,4.651,0,0,1,2.754,2.754l.582,1.577a.151.151,0,0,0,.283,0l.582-1.578a4.651,4.651,0,0,1,2.754-2.754l1.578-.582a.151.151,0,0,0,0-.283Z" transform="translate(-24.511 -185.194)" fill="#f1a625"/>
      </g>
    </g>
    <g id="Group_78" data-name="Group 78">
      <g id="complain" transform="translate(141 1582.903)">
        <path id="Path_105" data-name="Path 105" d="M80.074,93.815H13.68A13.662,13.662,0,0,1,1.46,74.043l33.2-66.394a13.662,13.662,0,0,1,24.44,0l33.2,66.394A13.662,13.662,0,0,1,80.074,93.815Z" transform="translate(0)" fill="url(#linear-gradient)"/>
        <path id="Path_106" data-name="Path 106" d="M80.074,93.815H13.68A13.662,13.662,0,0,1,1.46,74.043l33.2-66.394a13.662,13.662,0,0,1,24.44,0l33.2,66.394A13.662,13.662,0,0,1,80.074,93.815Z" transform="translate(0)" fill="url(#linear-gradient-2)"/>
        <path id="Path_107" data-name="Path 107" d="M105.445,92.089l-33.2-66.394a9.985,9.985,0,0,0-17.863,0l-33.2,66.394A9.986,9.986,0,0,0,30.12,106.54H96.514a9.986,9.986,0,0,0,8.931-14.451Zm-3.564,7.782a6.269,6.269,0,0,1-5.367,2.992H30.12a6.309,6.309,0,0,1-5.643-9.131l33.2-66.394a6.309,6.309,0,0,1,11.286,0l33.2,66.394A6.268,6.268,0,0,1,101.88,99.871Z" transform="translate(-16.44 -16.401)" fill="url(#linear-gradient-3)"/>
        <path id="Path_108" data-name="Path 108" d="M268.684,208.631h-5.228l-30.22-30.22a2.323,2.323,0,0,1-1.342-2.272c0-4.077-.167-6.986-.5-16.214s-.5-11.122-.5-15.2a3.633,3.633,0,0,1,1.329-3.013,5.326,5.326,0,0,1,3.439-1.063,3.958,3.958,0,0,1,3.1,1.1c.127.14,27.676,27.679,37.185,37.185l4.96,9.919A13.662,13.662,0,0,1,268.684,208.631Z" transform="translate(-188.611 -114.816)" fill="url(#linear-gradient-4)"/>
        <path id="Path_109" data-name="Path 109" d="M259.064,407.108H245.391l-15.675-15.675a4.132,4.132,0,0,1,0-6.475,5.638,5.638,0,0,1,3.8-1.34,4.813,4.813,0,0,1,3.4,1.34Z" transform="translate(-186.373 -313.293)" fill="url(#linear-gradient-5)"/>
        <path id="Path_110" data-name="Path 110" d="M228.154,189.736a4.138,4.138,0,0,1,1.563-3.256,5.639,5.639,0,0,1,3.8-1.341,4.812,4.812,0,0,1,3.4,1.341,4.367,4.367,0,0,1,0,6.474,4.739,4.739,0,0,1-3.4,1.379,5.542,5.542,0,0,1-3.8-1.379A4.177,4.177,0,0,1,228.154,189.736Zm.5-45.012a3.636,3.636,0,0,1,1.328-3.014,5.34,5.34,0,0,1,3.44-1.062,3.964,3.964,0,0,1,3.1,1.105,4.289,4.289,0,0,1,.99,2.971c0,4.078-.071,5.972-.209,15.2s-.209,12.136-.209,16.212a2.23,2.23,0,0,1-1.194,2,4.737,4.737,0,0,1-2.48.721q-3.765,0-3.765-2.718c0-4.076-.167-6.984-.5-16.212S228.656,148.8,228.656,144.724Z" transform="translate(-186.376 -114.814)" fill="#fff"/>
      </g>
    </g>
  </g>
</svg>
