<svg xmlns="http://www.w3.org/2000/svg" width="100" height="100" viewBox="0 0 100 100">
  <g id="grade-icon" transform="translate(8889 16339)">
    <g id="Ellipse_115" data-name="Ellipse 115" transform="translate(-8889 -16339)" fill="#fff" stroke="#009CD7" stroke-width="3">
      <circle cx="50" cy="50" r="50" stroke="none"/>
      <circle cx="50" cy="50" r="48.5" fill="none"/>
    </g>
    <g id="grades" transform="translate(-8868.999 -16315.387)">
      <g id="Group_253" data-name="Group 253" transform="translate(48.644 38.769)">
        <g id="Group_252" data-name="Group 252" transform="translate(0 0)">
          <path id="Path_656" data-name="Path 656" d="M473.259,372.611l-.015-.015a1.03,1.03,0,1,0-1.461,1.453l.015.015a1.03,1.03,0,0,0,1.461-1.453Z" transform="translate(-471.484 -372.293)" fill="#35b23d" stroke="#35b23d" stroke-width="1"/>
        </g>
      </g>
      <g id="Group_255" data-name="Group 255" transform="translate(-0.001 36.647)">
        <g id="Group_254" data-name="Group 254" transform="translate(0 0)">
          <path id="Path_657" data-name="Path 657" d="M52.473,357.715a1.03,1.03,0,1,0-1.967.6,6.181,6.181,0,1,1-3.966-4.076,1.036,1.036,0,0,0,.649-1.967,8.2,8.2,0,0,0-8.276,1.844H8.774v-.738a1.03,1.03,0,0,0-1.758-.738L.3,359.365a1.03,1.03,0,0,0,0,1.458l6.712,6.712a1.03,1.03,0,0,0,1.758-.738v-.738H38.91a8.239,8.239,0,0,0,13.562-8.36Zm-15.146,6.3H7.744a1.03,1.03,0,0,0-.868.475L2.487,360.1l4.4-4.391a1.03,1.03,0,0,0,.868.474H37.329a8.266,8.266,0,0,0,0,7.828Z" transform="translate(0.001 -351.839)" fill="#35b23d" stroke="#35b23d" stroke-width="1"/>
        </g>
      </g>
      <g id="Group_257" data-name="Group 257" transform="translate(48.627 20.639)">
        <g id="Group_256" data-name="Group 256" transform="translate(0 0)">
          <path id="Path_658" data-name="Path 658" d="M473.1,196.884l-.015-.015a1.03,1.03,0,1,0-1.461,1.453l.012.015a1.03,1.03,0,0,0,1.46-1.453Z" transform="translate(-471.324 -196.566)" fill="#35b23d" stroke="#35b23d" stroke-width="1"/>
        </g>
      </g>
      <g id="Group_259" data-name="Group 259" transform="translate(48.627 2.508)">
        <g id="Group_258" data-name="Group 258" transform="translate(0 0)">
          <path id="Path_659" data-name="Path 659" d="M473.1,21.159l-.015-.015a1.03,1.03,0,1,0-1.461,1.453l.012.015a1.03,1.03,0,1,0,1.46-1.453Z" transform="translate(-471.324 -20.841)" fill="#35b23d" stroke="#35b23d" stroke-width="1"/>
        </g>
      </g>
      <g id="Group_261" data-name="Group 261" transform="translate(42.017 4.319)">
        <g id="Group_260" data-name="Group 260" transform="translate(0 0)">
          <path id="Path_660" data-name="Path 660" d="M410.558,38.442a1.03,1.03,0,0,0-1.146.325L407.29,41.4a1.03,1.03,0,0,0,1.6,1.293l.29-.359v3.673a1.03,1.03,0,0,0,2.06,0v-6.6a1.03,1.03,0,0,0-.686-.966Z" transform="translate(-407.078 -38.383)" fill="#35b23d" stroke="#35b23d" stroke-width="1"/>
        </g>
      </g>
      <g id="Group_263" data-name="Group 263" transform="translate(41.364 21.759)">
        <g id="Group_262" data-name="Group 262" transform="translate(0 0)">
          <path id="Path_661" data-name="Path 661" d="M406.415,214.07h-1.652a5.921,5.921,0,0,0,2.058-3.641,2.793,2.793,0,0,0-2.951-2.95,2.95,2.95,0,0,0-2.95,2.95,1.03,1.03,0,1,0,2.06,0,.892.892,0,0,1,.89-.89c.784,0,.89.45.89.89,0,.92-1.967,2.818-3.408,3.831a1.03,1.03,0,0,0,.6,1.871h4.467a1.03,1.03,0,0,0,0-2.06Z" transform="translate(-400.917 -207.473)" fill="#35b23d" stroke="#35b23d" stroke-width="1"/>
        </g>
      </g>
      <g id="Group_265" data-name="Group 265" transform="translate(42.139 40.578)">
        <g id="Group_264" data-name="Group 264" transform="translate(0)">
          <path id="Path_662" data-name="Path 662" d="M413.395,392.5a2.682,2.682,0,0,0-2.677-2.677h-1.271a1.03,1.03,0,1,0,0,2.06h1.271a.617.617,0,1,1,0,1.229h-1.271a1.03,1.03,0,1,0,0,2.06h1.271a.617.617,0,0,1,0,1.23h-1.271a1.03,1.03,0,1,0,0,2.06h1.271a27.137,27.137,0,0,0,2.677-5.975Z" transform="translate(-408.416 -389.824)" fill="#35b23d" stroke="#35b23d" stroke-width="1"/>
        </g>
      </g>
      <g id="Group_267" data-name="Group 267" transform="translate(8.801 18.512)">
        <g id="Group_266" data-name="Group 266" transform="translate(0 0)">
          <path id="Path_663" data-name="Path 663" d="M128.941,181.986a1.03,1.03,0,1,0-1.967.595,6.181,6.181,0,1,1-3.966-4.077,1.036,1.036,0,1,0,.649-1.967,8.2,8.2,0,0,0-8.269,1.839H94.057v-.738A1.03,1.03,0,0,0,92.3,176.9l-6.712,6.712a1.03,1.03,0,0,0,0,1.458l6.712,6.712a1.03,1.03,0,0,0,1.758-.738v-.738h21.312a8.239,8.239,0,0,0,13.57-8.36Zm-15.151,6.292H93.026a1.03,1.03,0,0,0-.868.475l-4.377-4.386,4.389-4.389a1.03,1.03,0,0,0,.868.475h20.774a8.266,8.266,0,0,0,0,7.829Z" transform="translate(-85.284 -176.11)" fill="#35b23d" stroke="#35b23d" stroke-width="1"/>
        </g>
      </g>
      <g id="Group_269" data-name="Group 269" transform="translate(20.097 0.387)">
        <g id="Group_268" data-name="Group 268" transform="translate(0 0)">
          <path id="Path_664" data-name="Path 664" d="M227.091,6.262a1.03,1.03,0,1,0-1.967.6,6.181,6.181,0,1,1-3.966-4.077,1.036,1.036,0,0,0,.649-1.967,8.2,8.2,0,0,0-8.276,1.846H203.5V1.922a1.03,1.03,0,0,0-1.758-.738L195.034,7.9a1.03,1.03,0,0,0,0,1.458l6.712,6.712a1.03,1.03,0,0,0,1.758-.738v-.738h10.029A8.239,8.239,0,0,0,227.1,6.232Zm-24.622,6.3a1.03,1.03,0,0,0-.868.475l-4.389-4.389L201.6,4.258a1.03,1.03,0,0,0,.868.475h9.476a8.266,8.266,0,0,0,0,7.829Z" transform="translate(-194.732 -0.387)" fill="#35b23d" stroke="#35b23d" stroke-width="1"/>
        </g>
      </g>
    </g>
  </g>
</svg>
