<svg id="account" xmlns="http://www.w3.org/2000/svg" width="37.775" height="37.775" viewBox="0 0 37.775 37.775">
  <path id="Path_1" data-name="Path 1" d="M37.775,18.888A18.888,18.888,0,1,0,18.888,37.775,18.877,18.877,0,0,0,37.775,18.888ZM18.888,2.213A16.677,16.677,0,0,1,32.706,28.222a18.88,18.88,0,0,0-27.638,0A16.677,16.677,0,0,1,18.888,2.213ZM6.449,29.992a16.67,16.67,0,0,1,24.876,0A16.658,16.658,0,0,1,6.449,29.992Zm0,0" fill="#f1f2f6"/>
  <path id="Path_2" data-name="Path 2" d="M172.64,76.494a6.648,6.648,0,0,0,6.64-6.64V67.64a6.64,6.64,0,1,0-13.28,0v2.213A6.648,6.648,0,0,0,172.64,76.494Zm-4.427-8.854a4.427,4.427,0,0,1,8.854,0v2.213a4.427,4.427,0,1,1-8.854,0Zm0,0" transform="translate(-153.753 -56.499)" fill="#f1f2f6"/>
</svg>
