<svg xmlns="http://www.w3.org/2000/svg" width="25.752" height="29.754" viewBox="0 0 25.752 29.754">
  <path id="bag" d="M25.747,28.777,23.486,7.241a.886.886,0,0,0-.881-.793h-4.25V5.479a5.479,5.479,0,0,0-10.957,0v.969H3.147a.886.886,0,0,0-.881.793L0,28.777a.885.885,0,0,0,.881.978H24.866a.886.886,0,0,0,.881-.978ZM9.168,5.479a3.708,3.708,0,0,1,7.415,0v.969H9.168Zm-7.3,22.5L3.944,8.219H7.4v1.952a.886.886,0,0,0,1.771,0V8.219h7.415v1.952a.886.886,0,0,0,1.771,0V8.219h3.453l2.076,19.764Zm0,0" transform="translate(0 0)" fill="#f1f2f6"/>
</svg>
