<svg xmlns="http://www.w3.org/2000/svg" width="155.095" height="135.326" viewBox="0 0 155.095 135.326">
  <g id="customer" transform="translate(0 -32.631)">
    <circle id="Ellipse_86" data-name="Ellipse 86" cx="26.505" cy="26.505" r="26.505" transform="translate(50.918 32.631)" fill="#b5b5b5"/>
    <ellipse id="Ellipse_87" data-name="Ellipse 87" cx="16.392" cy="16.74" rx="16.392" ry="16.74" transform="translate(114.392 52.161)" fill="#b5b5b5"/>
    <circle id="Ellipse_88" data-name="Ellipse 88" cx="16.74" cy="16.74" r="16.74" transform="translate(7.673 52.161)" fill="#b5b5b5"/>
    <path id="Path_201" data-name="Path 201" d="M40.649,245.221c-6.558-5.373-12.5-4.662-20.081-4.662A20.531,20.531,0,0,0,0,261v33.082a8.9,8.9,0,0,0,8.909,8.876c21.212,0,18.657.384,18.657-.915C27.566,278.6,24.789,261.413,40.649,245.221Z" transform="translate(0 -144.921)" fill="#b5b5b5"/>
    <path id="Path_202" data-name="Path 202" d="M168.538,240.207c-13.245-1.1-24.757.013-34.687,8.209-16.617,13.31-13.419,31.232-13.419,53.156a10.626,10.626,0,0,0,10.608,10.608c63.941,0,66.486,2.063,70.278-6.334,1.243-2.84.9-1.937.9-29.1C202.22,255.17,183.538,240.207,168.538,240.207Z" transform="translate(-83.778 -144.448)" fill="#b5b5b5"/>
    <path id="Path_203" data-name="Path 203" d="M397.891,240.56c-7.625,0-13.531-.7-20.081,4.662,15.741,16.072,13.083,32.09,13.083,56.825,0,1.307-2.121.915,18.339.915a9.218,9.218,0,0,0,9.227-9.191V261A20.531,20.531,0,0,0,397.891,240.56Z" transform="translate(-263.364 -144.922)" fill="#b5b5b5"/>
  </g>
</svg>
