<svg xmlns="http://www.w3.org/2000/svg" width="31" height="28.316" viewBox="0 0 31 28.316">
  <g id="favorite" transform="translate(0 -22.164)">
    <g id="Group_11" data-name="Group 11" transform="translate(0 22.164)">
      <path id="Path_3" data-name="Path 3" d="M22.733,22.164a9.731,9.731,0,0,0-7.233,3.3,9.732,9.732,0,0,0-7.233-3.3C3.3,22.164,0,26.778,0,31.947c0,3.868,1.95,11.4,15.011,18.41a1.033,1.033,0,0,0,.977,0C29.05,43.349,31,35.815,31,31.947,31,26.658,27.6,22.164,22.733,22.164ZM15.5,48.271c-6.274-3.449-13.433-9.2-13.433-16.324,0-3.964,2.381-7.716,6.2-7.716a7.822,7.822,0,0,1,6.356,3.45,1.034,1.034,0,0,0,1.757,0,7.919,7.919,0,0,1,6.354-3.447c3.848,0,6.2,3.79,6.2,7.716C28.933,39.074,21.774,44.821,15.5,48.271Z" transform="translate(0 -22.164)" fill="#f1f2f6"/>
    </g>
  </g>
</svg>
