<svg xmlns="http://www.w3.org/2000/svg" width="229" height="229" viewBox="0 0 229 229">
  <g id="image-holder" transform="translate(3437 23017)">
    <rect id="Rectangle_69" data-name="Rectangle 69" width="229" height="229" rx="23" transform="translate(-3437 -23017)" fill="#fff"/>
    <path id="image_1_" data-name="image (1)" d="M152.768,0H20.279A20.3,20.3,0,0,0,0,20.279V152.768a20.3,20.3,0,0,0,20.279,20.279H152.768a20.3,20.3,0,0,0,20.279-20.279V20.279A20.3,20.3,0,0,0,152.768,0ZM20.279,13.519H152.768a6.767,6.767,0,0,1,6.76,6.76v99.27L136.52,96.542a20.3,20.3,0,0,0-28.679,0L100.381,104,79.4,83.023a20.3,20.3,0,0,0-28.679,0l-37.2,37.2V20.279A6.767,6.767,0,0,1,20.279,13.519ZM152.768,159.528H20.279a6.767,6.767,0,0,1-6.76-6.76V139.345L60.281,92.582a6.767,6.767,0,0,1,9.559,0l30.54,30.539L117.4,106.1a6.767,6.767,0,0,1,9.559,0l32.568,32.568v14.1A6.767,6.767,0,0,1,152.768,159.528ZM109.506,67.6A20.279,20.279,0,1,0,89.227,47.318,20.3,20.3,0,0,0,109.506,67.6Zm0-27.039a6.76,6.76,0,1,1-6.76,6.76A6.767,6.767,0,0,1,109.506,40.558Z" transform="translate(-3402.125 -22986.125)" fill="#e9e9e9"/>
  </g>
</svg>
