<svg xmlns="http://www.w3.org/2000/svg" width="319" height="521" viewBox="0 0 319 521">
  <g id="itro3" transform="translate(-28 -970)">
    <g id="itro3-2" data-name="itro3" transform="translate(0 458)">
      <rect id="Rectangle_38" data-name="Rectangle 38" width="319" height="521" rx="13" transform="translate(28 512)" fill="#fff"/>
      <rect id="Rectangle_39" data-name="Rectangle 39" width="319" height="226" rx="13" transform="translate(28 512)" fill="rgba(99,206,226,0.45)"/>
      <text id="Payments" transform="translate(135 766)" fill="#111822" font-size="15" font-family="Montserrat-Bold, Montserrat" font-weight="700"><tspan x="0" y="0">Payments</tspan></text>
      <text id="Tybofashion_comes_with_build-in_payment_system_so_customer_can_purchase_easily_so_you_don_t_need_to_worry_about_any_integrations._" data-name="Tybofashion comes with build-in 
payment system so customer can purchase easily, so you don&apos;t need to worry about any integrations. " transform="translate(47 783)" fill="#111822" font-size="17" font-family="Montserrat-Bold, Montserrat" font-weight="700"><tspan x="0" y="16">Tybofashion </tspan><tspan y="16" font-family="Montserrat-Regular, Montserrat" font-weight="400">comes with build-in </tspan><tspan font-family="Montserrat-Regular, Montserrat" font-weight="400"><tspan x="0" y="36">payment system so customer can </tspan><tspan x="0" y="56">purchase easily, so you don&apos;t need </tspan><tspan x="0" y="76">to worry about any integrations. </tspan></tspan></text>
      <text id="You_get_paid_every_week_for_all_the_sales_you_made._Tybofashion_is_free_we_only_charge_10_charges_per_purchase_you_make_so_don_t_worry_you_got_nothing_to_loose." data-name="You get paid every week for all the sales you made.
Tybofashion is free, we only charge 10% charges per purchase you make, so don&apos;t worry you got nothing to loose." transform="translate(47 875)" fill="#111822" font-size="17" font-family="Montserrat-Regular, Montserrat"><tspan x="0" y="16">You get paid every week for all </tspan><tspan x="0" y="36">the sales you made.</tspan><tspan font-family="Montserrat-Bold, Montserrat" font-weight="700"><tspan x="0" y="56">Tybofashion </tspan><tspan y="56" font-family="Montserrat-Regular, Montserrat" font-weight="400">is free, we only </tspan><tspan x="0" y="76" font-family="Montserrat-Regular, Montserrat" font-weight="400">charge </tspan><tspan y="76">10%</tspan><tspan y="76" xml:space="preserve" font-family="Montserrat-Regular, Montserrat" font-weight="400"> charges per purchase </tspan><tspan x="0" y="96" font-family="Montserrat-Regular, Montserrat" font-weight="400">you make, so don&apos;t worry you got </tspan><tspan x="0" y="116" font-family="Montserrat-Regular, Montserrat" font-weight="400">nothing to loose.</tspan></tspan></text>
    </g>
    <g id="undraw_online_payments_luau" transform="translate(70 1024)">
      <path id="Path_67" data-name="Path 67" d="M171.339,546.657l-1.408-5.555a72.123,72.123,0,0,0-7.653-2.745l-.178,2.582-.721-2.844c-3.225-.921-5.419-1.327-5.419-1.327s2.964,11.27,9.179,19.885l7.243,1.272-5.627.811a29.193,29.193,0,0,0,2.517,2.667c9.042,8.393,19.114,12.244,22.5,8.6s-1.208-13.4-10.25-21.793a38.418,38.418,0,0,0-9.849-6.333Z" transform="translate(-155.96 -443.215)" fill="#e6e6e6"/>
      <path id="Path_68" data-name="Path 68" d="M235.322,505.629l1.666-5.483a72.13,72.13,0,0,0-5.132-6.306l-1.487,2.118.853-2.807c-2.285-2.455-3.953-3.937-3.953-3.937s-3.288,11.179-2.421,21.767l5.543,4.833-5.236-2.214a29.181,29.181,0,0,0,.776,3.584c3.4,11.859,10.033,20.361,14.811,18.991s5.893-12.1,2.491-23.954a38.419,38.419,0,0,0-5.158-10.513Z" transform="translate(-206.549 -408.22)" fill="#e6e6e6"/>
      <rect id="Rectangle_40" data-name="Rectangle 40" width="234.507" height="0.592" transform="translate(0.021 128.781)" fill="#3f3d56"/>
      <path id="Path_69" data-name="Path 69" d="M279.054,431.573s-1.826,21.958-2.218,26.664a33.462,33.462,0,0,1-1.96,8.626,8.111,8.111,0,0,0-.784,3.137v20a1.166,1.166,0,0,0-1.176,1.568c.392,1.568.784,4.313.784,4.313h5.882a1.214,1.214,0,0,1,.784-1.568c1.176-.392,0-3.529,0-3.529l6.274-23.526,9.41-19.605s5.49,17.645,6.666,19.605c0,0,4.313,21.958,5.1,23.918s1.176,1.961.784,2.745a1.75,1.75,0,0,0,0,1.961c.392.392,7.842,0,7.842,0l-1.961-27.84-3.529-33.329-18.037-5.49Z" transform="translate(-241.983 -364.07)" fill="#2f2e41"/>
      <path id="Path_70" data-name="Path 70" d="M264.486,659.557s-1.961-7.058-5.1-1.568-3.137,7.45-3.137,7.45-5.1,7.45,1.961,6.666,5.489-4.313,5.489-4.313,2.745-1.568,2.745-2.745S264.486,659.557,264.486,659.557Z" transform="translate(-228.457 -530.885)" fill="#2f2e41"/>
      <path id="Path_71" data-name="Path 71" d="M407.2,656.588s1.961-7.058,5.1-1.568,3.137,7.45,3.137,7.45,5.1,7.45-1.961,6.666-5.49-4.313-5.49-4.313-2.745-1.568-2.745-2.745S407.2,656.588,407.2,656.588Z" transform="translate(-339.405 -528.7)" fill="#2f2e41"/>
      <path id="Path_72" data-name="Path 72" d="M337.237,237.686s.784,5.1-1.568,6.274,5.1,5.489,7.058,5.489,5.49-3.921,5.49-3.921-1.961-5.882-1.568-7.058Z" transform="translate(-287.876 -223.117)" fill="#a0616a"/>
      <circle id="Ellipse_23" data-name="Ellipse 23" cx="8.234" cy="8.234" r="8.234" transform="translate(45.44 2.022)" fill="#a0616a"/>
      <path id="Path_73" data-name="Path 73" d="M327.9,266.623l-9.8-5.939s-5.577,6.331-11.611-.727L296.141,262.7l1.568,26.663s-2.353,10.587-1.568,12.547-1.961,2.745-1.176,3.137,0,3.137,0,3.137,15.292,7.842,32.153,1.961l-1.568-5.1a4.115,4.115,0,0,0-.784-3.921,3.469,3.469,0,0,0-.392-4.313s.784-3.529-1.176-5.1l-.392-5.489,1.176-2.745Z" transform="translate(-258.151 -239.506)" fill="#cfcce0"/>
      <path id="Path_74" data-name="Path 74" d="M330.806,188.948s-.982,2.124,2.945,1.275c0,0,1.473.85,1.473-.425,0,0,1.963,2.124,2.454.85s1.473.425,1.473.425l.982-2.124.982,1.275h3.436s.982-8.5-10.8-7.648-5.985,14.314-5.985,14.314.095-2.417,1.077-1.142S330.806,188.948,330.806,188.948Z" transform="translate(-281.346 -182.515)" fill="#2f2e41"/>
      <path id="Path_75" data-name="Path 75" d="M412.924,344.589l.392,8.234s1.568,15.292-1.568,21.958v3.529s-.784,9.018-4.705,8.626S408.219,374,408.219,374l-.784-17.253-.784-9.8Z" transform="translate(-339.644 -301.788)" fill="#a0616a"/>
      <path id="Path_76" data-name="Path 76" d="M393.916,284.912l3.911-.635a19.1,19.1,0,0,1,5.5,10.046c1.176,6.274,1.568,7.45,1.568,7.45l-9.411,2.353-5.1-9.8Z" transform="translate(-328.478 -257.403)" fill="#cfcce0"/>
      <rect id="Rectangle_41" data-name="Rectangle 41" width="61.878" height="30.738" transform="translate(48.596 23.034)" fill="#fff"/>
      <path id="Path_77" data-name="Path 77" d="M353.76,274.373a7.232,7.232,0,0,0-4.235-.81,6.244,6.244,0,0,0,6.935,4.173A7.236,7.236,0,0,0,353.76,274.373Z" transform="translate(-298.407 -249.49)"/>
      <path id="Path_78" data-name="Path 78" d="M359.932,348.571H350a2.236,2.236,0,1,0,0,4.471h9.936a2.236,2.236,0,1,0,0-4.471Z" transform="translate(-297.109 -304.719)"/>
      <path id="Path_79" data-name="Path 79" d="M395.234,259.215H339.527a4.935,4.935,0,0,0-4.935,4.935v27.142a4.935,4.935,0,0,0,4.935,4.935h55.707a4.935,4.935,0,0,0,4.935-4.935V264.15a4.935,4.935,0,0,0-4.935-4.935Zm-57.085,3.366a6.81,6.81,0,0,1,7.9,4.754l.087.271-.28.05a7.443,7.443,0,0,1-1.209.089,7.2,7.2,0,0,1-3.67-.925,7.8,7.8,0,0,1-3.024-3.918l-.087-.271Zm12.093,25.2h-9.936a2.732,2.732,0,1,1,0-5.465h9.936a2.732,2.732,0,1,1,0,5.465Zm45.208-.5a2.99,2.99,0,0,1-2.981,2.981h-7.452a2.99,2.99,0,0,1-2.981-2.981v-4.471a2.99,2.99,0,0,1,2.981-2.981h7.452a2.99,2.99,0,0,1,2.981,2.981Z" transform="translate(-287.418 -238.96)"/>
      <path id="Path_80" data-name="Path 80" d="M523.046,362.209h-3.229a.869.869,0,0,0,0,1.739h3.229a.869.869,0,0,0,0-1.739Zm0,1.242h-3.229a.373.373,0,1,1,0-.745h3.229a.373.373,0,0,1,0,.745Z" transform="translate(-423.088 -314.755)"/>
      <path id="Path_81" data-name="Path 81" d="M545.62,362.209H542.39a.869.869,0,0,0,0,1.739h3.229a.869.869,0,0,0,0-1.739Zm0,1.242H542.39a.373.373,0,1,1,0-.745h3.229a.373.373,0,1,1,0,.745Z" transform="translate(-439.7 -314.755)"/>
      <path id="Path_82" data-name="Path 82" d="M523.046,353.744h-3.229a.869.869,0,0,0,0,1.739h3.229a.869.869,0,0,0,0-1.739Zm0,1.242h-3.229a.373.373,0,1,1,0-.745h3.229a.373.373,0,0,1,0,.745Z" transform="translate(-423.088 -308.525)"/>
      <path id="Path_83" data-name="Path 83" d="M545.62,353.744H542.39a.869.869,0,0,0,0,1.739h3.229a.869.869,0,0,0,0-1.739Zm0,1.242H542.39a.373.373,0,1,1,0-.745h3.229a.373.373,0,1,1,0,.745Z" transform="translate(-439.7 -308.525)"/>
      <path id="Path_84" data-name="Path 84" d="M523.046,345.279h-3.229a.869.869,0,0,0,0,1.739h3.229a.869.869,0,0,0,0-1.739Zm0,1.242h-3.229a.373.373,0,1,1,0-.745h3.229a.373.373,0,0,1,0,.745Z" transform="translate(-423.088 -302.296)"/>
      <path id="Path_85" data-name="Path 85" d="M545.62,345.279H542.39a.869.869,0,0,0,0,1.739h3.229a.869.869,0,0,0,0-1.739Zm0,1.242H542.39a.373.373,0,1,1,0-.745h3.229a.373.373,0,1,1,0,.745Z" transform="translate(-439.7 -302.296)"/>
      <path id="Path_86" data-name="Path 86" d="M273.756,299.3s-3.529,14.9.784,14.9,14.508-16.861,14.508-16.861,10.587-5.489,6.274-7.45-9.8,3.137-9.8,3.137l-6.334,8.794-.332-4.481Z" transform="translate(-241.648 -261.202)" fill="#a0616a"/>
      <path id="Path_87" data-name="Path 87" d="M281.408,272.7l-2.353-2.353s-4.705,2.745-5.1,5.489-2.353,11.371-2.353,11.371l7.254.588,2.353-3.529Z" transform="translate(-241.065 -247.155)" fill="#cfcce0"/>
      <path id="Path_88" data-name="Path 88" d="M723.882,229.125c-.3-.872-4-3.837-1.73-4.335l1.861,2.482,8.558-8.558.861.861Z" transform="translate(-572.09 -209.154)"/>
      <path id="Path_89" data-name="Path 89" d="M723.882,339.319c-.3-.872-4-3.837-1.73-4.335l1.861,2.482,8.558-8.558.861.861Z" transform="translate(-572.09 -290.248)"/>
      <path id="Path_90" data-name="Path 90" d="M723.882,451.087c-.3-.872-4-3.837-1.73-4.335l1.861,2.482,8.558-8.558.861.861Z" transform="translate(-572.09 -372.5)"/>
      <circle id="Ellipse_24" data-name="Ellipse 24" cx="2.641" cy="2.641" r="2.641" transform="translate(175.073 13.791)" fill="#3f3d56"/>
      <rect id="Rectangle_42" data-name="Rectangle 42" width="42.518" height="0.528" transform="translate(187.617 16.168)" fill="#3f3d56"/>
      <circle id="Ellipse_25" data-name="Ellipse 25" cx="2.641" cy="2.641" r="2.641" transform="translate(175.073 42.892)" fill="#3f3d56"/>
      <rect id="Rectangle_43" data-name="Rectangle 43" width="42.518" height="0.528" transform="translate(187.617 45.268)" fill="#3f3d56"/>
      <circle id="Ellipse_26" data-name="Ellipse 26" cx="2.641" cy="2.641" r="2.641" transform="translate(175.073 72.408)" fill="#3f3d56"/>
      <rect id="Rectangle_44" data-name="Rectangle 44" width="42.518" height="0.528" transform="translate(187.617 74.785)" fill="#3f3d56"/>
      <path id="Path_91" data-name="Path 91" d="M563.244,274.953h-13.2V261.485h8.979v.528h-8.451v12.412h12.148v-6.074h.528Z" transform="translate(-404.783 -192.431)" fill="#3f3d56"/>
      <path id="Path_92" data-name="Path 92" d="M563.244,162.953h-13.2V149.485h8.979v.528h-8.451v12.412h12.148v-6.074h.528Z" transform="translate(-404.783 -110.009)" fill="#3f3d56"/>
      <path id="Path_93" data-name="Path 93" d="M563.244,48.953h-13.2V35.485h8.979v.528h-8.451V48.425h12.148V42.351h.528Z" transform="translate(-404.783 -26.114)" fill="#3f3d56"/>
    </g>
  </g>
</svg>
