<svg xmlns="http://www.w3.org/2000/svg" width="319" height="402" viewBox="0 0 319 402">
  <g id="itro1" transform="translate(-28 -67)">
    <rect id="Rectangle_38" data-name="Rectangle 38" width="319" height="402" rx="13" transform="translate(28 67)" fill="#fff"/>
    <rect id="Rectangle_39" data-name="Rectangle 39" width="319" height="226" rx="13" transform="translate(28 67)" fill="#dfffe9"/>
    <g id="undraw_Online_shopping_re_k1sv" transform="translate(84 105)">
      <path id="Path_43" data-name="Path 43" d="M185.6,636.007c6.637,4.781,15.239,5.022,23.553,4.434,1.161-.082,2.314-.178,3.456-.282l.023,0c.055-.005.11-.01.162-.014l.705-.066-.055.105-.173.327.187-.326c.018-.033.039-.065.057-.1,2.154-3.748,4.29-7.634,4.835-11.914.563-4.442-1.02-9.472-4.929-11.656a7.889,7.889,0,0,0-1.619-.678c-.234-.071-.471-.129-.711-.18a8.456,8.456,0,0,0-9.834,10.993c-3.315-3.4-2.7-8.913-1.553-13.521s2.533-9.736.2-13.875a9.149,9.149,0,0,0-6.129-4.309c-.078-.017-.157-.034-.235-.048a12.341,12.341,0,0,0-8.867,1.554c-4.888,3.08-7.4,8.92-8.213,14.641C175.145,620.3,178.05,630.57,185.6,636.007Z" transform="translate(-176.154 -475.923)" fill="#f2f2f2"/>
      <path id="Path_44" data-name="Path 44" d="M221.776,621.966a20.981,20.981,0,0,0,1.448,5.912,18.217,18.217,0,0,0,2.828,4.62,23.34,23.34,0,0,0,8.965,6.465,33.593,33.593,0,0,0,8.168,2.195c1.161-.082,2.314-.178,3.456-.282l.023,0c.055-.005.11-.01.162-.014l.705-.066-.055.105-.173.327.187-.326c.018-.033.039-.065.057-.1a18.4,18.4,0,0,1-1.713-24.247c-.234-.071-.471-.129-.711-.18a19.425,19.425,0,0,0-1.771,2.934,19.026,19.026,0,0,0-1.642,11.836,19.452,19.452,0,0,0,4.928,9.7c-.222-.016-.446-.034-.665-.054a34.109,34.109,0,0,1-12.056-3.071,21.714,21.714,0,0,1-8.134-6.674,19.625,19.625,0,0,1-3.457-10.77,45.45,45.45,0,0,1,1.29-12.3,51.646,51.646,0,0,1,4.34-11.821.371.371,0,0,0-.147-.49.316.316,0,0,0-.235-.048.275.275,0,0,0-.181.156c-.237.463-.47.926-.694,1.395a52.232,52.232,0,0,0-4.089,12.264A42.061,42.061,0,0,0,221.776,621.966Z" transform="translate(-210.19 -476.639)" fill="#fff"/>
      <path id="Path_45" data-name="Path 45" d="M666.893,263.674H557.12a4.275,4.275,0,0,1-4.27-4.27V126.27a4.275,4.275,0,0,1,4.27-4.27H666.893a4.275,4.275,0,0,1,4.27,4.27V259.4a4.275,4.275,0,0,1-4.27,4.27ZM557.12,122.5a3.772,3.772,0,0,0-3.768,3.768V259.4a3.772,3.772,0,0,0,3.768,3.768H666.893a3.772,3.772,0,0,0,3.768-3.768V126.27a3.772,3.772,0,0,0-3.768-3.768Z" transform="translate(-458.226 -122)" fill="#3f3d56"/>
      <rect id="Rectangle_35" data-name="Rectangle 35" width="117.811" height="0.502" transform="translate(94.874 10.447)" fill="#3f3d56"/>
      <circle id="Ellipse_17" data-name="Ellipse 17" cx="2.01" cy="2.01" r="2.01" transform="translate(98.642 3.517)" fill="#3f3d56"/>
      <circle id="Ellipse_18" data-name="Ellipse 18" cx="2.01" cy="2.01" r="2.01" transform="translate(104.922 3.517)" fill="#3f3d56"/>
      <circle id="Ellipse_19" data-name="Ellipse 19" cx="2.01" cy="2.01" r="2.01" transform="translate(111.202 3.517)" fill="#3f3d56"/>
      <path id="Path_46" data-name="Path 46" d="M695.745,223.531H617.372a3.266,3.266,0,1,1,0-6.531h78.373a3.266,3.266,0,0,1,0,6.531ZM617.372,217.5a2.763,2.763,0,1,0,0,5.526h78.373a2.763,2.763,0,1,0,0-5.526Z" transform="translate(-504.095 -193.136)" fill="#3f3d56"/>
      <path id="Path_47" data-name="Path 47" d="M639.013,324.911h-30.9a4.275,4.275,0,0,1-4.27-4.27V295.27a4.275,4.275,0,0,1,4.27-4.27h30.9a4.275,4.275,0,0,1,4.27,4.27v25.371A4.275,4.275,0,0,1,639.013,324.911Zm-30.9-33.409a3.772,3.772,0,0,0-3.768,3.768v25.371a3.772,3.772,0,0,0,3.768,3.768h30.9a3.772,3.772,0,0,0,3.768-3.768V295.27a3.772,3.772,0,0,0-3.768-3.768Z" transform="translate(-496.412 -248.548)" fill="#3f3d56"/>
      <rect id="Rectangle_36" data-name="Rectangle 36" width="38.935" height="33.409" rx="16" transform="translate(160.939 43.708)" fill="#f2f2f2"/>
      <path id="Path_48" data-name="Path 48" d="M639.013,512.911h-30.9a4.275,4.275,0,0,1-4.27-4.27V483.27a4.275,4.275,0,0,1,4.27-4.27h30.9a4.275,4.275,0,0,1,4.27,4.27v25.371A4.275,4.275,0,0,1,639.013,512.911Zm-30.9-33.409a3.772,3.772,0,0,0-3.768,3.768v25.371a3.772,3.772,0,0,0,3.768,3.768h30.9a3.772,3.772,0,0,0,3.768-3.768V483.27a3.772,3.772,0,0,0-3.768-3.768Z" transform="translate(-496.412 -389.323)" fill="#3f3d56"/>
      <rect id="Rectangle_37" data-name="Rectangle 37" width="38.935" height="33.409" rx="16" transform="translate(160.939 90.933)" fill="#f2f2f2"/>
      <path id="Path_49" data-name="Path 49" d="M639.078,336.327h-.017l-3.514-.13a.454.454,0,0,1-.438-.405c-.242-2.158-1.237-13.155,2.933-17.726a5.965,5.965,0,0,1,4.719-1.982.2.2,0,0,0,.181-.094l.851-1.337a.461.461,0,0,1,.44-.209c.682.082,4.159.471,5.621.048a.458.458,0,0,1,.483.149l1.117,1.365a.2.2,0,0,0,.163.076,5.728,5.728,0,0,1,4.3,2.049c1.888,2.112,3.837,6.877,2.4,17.583a.461.461,0,0,1-.454.4H655.1a.46.46,0,0,1-.453-.392l-.9-6.239a.207.207,0,0,0-.411.025l-.062,2.929a.459.459,0,0,1-.272.409,15.366,15.366,0,0,1-11.962-.08.462.462,0,0,1-.272-.4l-.113-2.661a.207.207,0,0,0-.412-.014l-.7,6.234A.46.46,0,0,1,639.078,336.327Z" transform="translate(-519.614 -266.1)" fill="#111822"/>
      <path id="Path_50" data-name="Path 50" d="M649.4,523.483h0l-13.771-.087a.411.411,0,0,1-.405-.363l-1.385-11.774a.317.317,0,0,0-.306-.282c-1.093-.036-3.694-.285-4.233-1.824-.48-1.371.833-3.394,3.9-6.011a.411.411,0,0,1,.662.2l1.593,5.5a.322.322,0,0,0,.3.231l13.057.088a.318.318,0,0,0,.307-.224l1.773-5.641a.41.41,0,0,1,.641-.2c1.21.924,5.107,4.1,4.466,6.125-.336,1.063-1.851,1.655-4.5,1.76a.318.318,0,0,0-.3.282l-1.386,11.867A.41.41,0,0,1,649.4,523.483Z" transform="translate(-515.396 -407.296)" fill="#111822"/>
      <path id="Path_51" data-name="Path 51" d="M868.107,349.918a29.03,29.03,0,0,0-11.933,5.285,2.213,2.213,0,0,0-.951-1.13,3.34,3.34,0,0,0-.966-.406.973.973,0,0,0-.883.381,5,5,0,0,0-.785,1.162c-4.729-3.246-11.9-5.317-11.9-5.317v-.649a3.578,3.578,0,0,1,.047-.456c.024-.174.055-.329.093-.517.609-3.1,3.015-10.17,3.015-10.17h2.721l5.275,1.1,5.934-.363,5.977-1.244.775-.162c1.292,1.014,2.759,8.115,3.335,11.138.073.383.13.7.172.933C868.08,349.762,868.107,349.918,868.107,349.918Z" transform="translate(-673.759 -283.313)" fill="#fff"/>
      <path id="Path_52" data-name="Path 52" d="M867.368,511.055h0s-1.264.316-3.223,5.624a58.651,58.651,0,0,0-2.654,12.166s-1.1,1.866,3.6,1.991c0,0-.378,1.232,2.276,1.043a13.734,13.734,0,0,0,2.272-.187s1.706-1.074,2.465-.885a3.994,3.994,0,0,1,2.053.948c.821.694,3.446.411,3.477-.125a4.954,4.954,0,0,0,0-.792s4.013.253,3.255-2.654S879.5,520.5,879.5,520.5s-2.053-9.321-4.393-9.448S867.368,511.055,867.368,511.055Z" transform="translate(-689.253 -413.285)" fill="#fff"/>
      <circle id="Ellipse_20" data-name="Ellipse 20" cx="7.536" cy="7.536" r="7.536" transform="translate(40.854 73.75)" fill="#2f2e41"/>
      <circle id="Ellipse_21" data-name="Ellipse 21" cx="6.17" cy="6.17" r="6.17" transform="translate(42.853 76.497)" fill="#ffb8b8"/>
      <path id="Path_53" data-name="Path 53" d="M409.841,517.472a2.648,2.648,0,0,0-.269.317l-12.45-.44-1.424-2.67-4.311,1.622,2.061,4.973a2.01,2.01,0,0,0,2.076,1.228l14.088-1.547a2.637,2.637,0,1,0,.229-3.483Z" transform="translate(-337.321 -416.04)" fill="#ffb8b8"/>
      <path id="Path_54" data-name="Path 54" d="M376.681,496.8a1.209,1.209,0,0,1-.664-.758l-1.734-5.82a3.36,3.36,0,1,1,6.081-2.862l3.359,5.083a1.21,1.21,0,0,1-.5,1.763l-5.537,2.586A1.209,1.209,0,0,1,376.681,496.8Z" transform="translate(-324.274 -394.14)" fill="#ccc"/>
      <path id="Path_55" data-name="Path 55" d="M240.516,606.349l2.7-1.473-4.392-11.133-3.992,2.173Z" transform="translate(-175.847 -444.597)" fill="#ffb8b8"/>
      <path id="Path_56" data-name="Path 56" d="M428.94,753.857l5.327-2.9h0a3.865,3.865,0,0,1,5.242,1.547l.06.11-8.721,4.748Z" transform="translate(-365.441 -592.614)" fill="#2f2e41"/>
      <path id="Path_57" data-name="Path 57" d="M138.957,608.566h3.079l1.465-11.879h-4.545Z" transform="translate(-104.051 -446.802)" fill="#ffb8b8"/>
      <path id="Path_58" data-name="Path 58" d="M311.985,761.972h6.065a3.865,3.865,0,0,1,3.865,3.865v.126h-9.93Z" transform="translate(-277.865 -601.214)" fill="#2f2e41"/>
      <path id="Path_59" data-name="Path 59" d="M332.186,550.106l1,12.057L344.4,595.787a1,1,0,0,1-.72,1.3l-3.435.818a1,1,0,0,1-1.13-.525l-14.329-28.424a.5.5,0,0,0-.939.118L317.539,597.8a1,1,0,0,1-.981.789h-3.2a1,1,0,0,1-1-1.018c.293-19.919-.673-42.616,7.017-46.206l1.256-3.266Z" transform="translate(-278.144 -441.063)" fill="#2f2e41"/>
      <path id="Path_60" data-name="Path 60" d="M339.678,501.226l-1.3-7.832a7.756,7.756,0,0,1,2.454-7.035,7.627,7.627,0,0,1,7.117-1.739l.22.061a7.733,7.733,0,0,1,5.583,6.869c.247,3.4.026,8.336-2.431,12.527l-.048.081Z" transform="translate(-297.552 -393.337)" fill="#ccc"/>
      <path id="Path_61" data-name="Path 61" d="M359.885,428.189a8.391,8.391,0,0,1-4.8,1.482,5.142,5.142,0,0,0,2.038.838,16.921,16.921,0,0,1-6.911.039,4.474,4.474,0,0,1-1.447-.5,1.831,1.831,0,0,1-.893-1.194,2.468,2.468,0,0,1,1.225-2.184,9.035,9.035,0,0,1,7.592-1.517,4.158,4.158,0,0,1,2.249,1.271,2.048,2.048,0,0,1,.189,2.432Z" transform="translate(-304.725 -348.802)" fill="#2f2e41"/>
      <path id="Path_62" data-name="Path 62" d="M291.423,397.453a5.1,5.1,0,0,0-4.822-6.036c-3.018.061-5.238,2.788-6.765,5.392s-3.044,5.555-5.846,6.677a6.036,6.036,0,0,1-8.276-5.751c-.376,3.163.145,6.586,2.185,9.033s5.836,3.549,8.565,1.905a9.82,9.82,0,0,0,3.376-4.2,19.228,19.228,0,0,1,2.8-4.663,4.949,4.949,0,0,1,4.9-1.65,16.881,16.881,0,0,0,2.014.785c.71.131,1.6-.206,1.7-.922Z" transform="translate(-243.132 -323.74)" fill="#2f2e41"/>
      <path id="Path_63" data-name="Path 63" d="M307.277,540.22a2.7,2.7,0,0,1,.689-4.08l5.352-23.988,5.429,2.228-6.968,22.879a2.713,2.713,0,0,1-4.5,2.961Z" transform="translate(-273.856 -414.147)" fill="#ffb8b8"/>
      <path id="Path_64" data-name="Path 64" d="M324.344,497.752a1.209,1.209,0,0,1-.085-1l2.058-5.714a3.36,3.36,0,1,1,6.593,1.305l-.313,6.084a1.21,1.21,0,0,1-1.447,1.124l-5.991-1.2a1.208,1.208,0,0,1-.815-.592Z" transform="translate(-287.002 -396.307)" fill="#ccc"/>
      <path id="Path_22" data-name="Path 22" d="M470.72,500.869l-.089-.012.336-2.442a1.427,1.427,0,0,0-1.219-1.608l-5.175-.711a1.427,1.427,0,0,0-1.608,1.219l-1.842,13.4a1.427,1.427,0,0,0,1.219,1.608l5.175.711a1.427,1.427,0,0,0,1.608-1.219l1.267-9.218.089.012Z" transform="translate(-389.53 -402.114)" fill="#3f3d56"/>
      <path id="Path_23" data-name="Path 23" d="M471.393,499.759l-.644-.089a.483.483,0,0,1-.534.6l-2.828-.389a.483.483,0,0,1-.352-.72l-.6-.083a1.017,1.017,0,0,0-1.145.869l-1.754,12.762a1.016,1.016,0,0,0,.868,1.145l4.959.682a1.016,1.016,0,0,0,1.145-.869h0l1.754-12.762a1.016,1.016,0,0,0-.868-1.145Z" transform="translate(-391.338 -404.35)" fill="#fff"/>
      <circle id="Ellipse_22" data-name="Ellipse 22" cx="2.763" cy="2.763" r="2.763" transform="translate(73.774 100.478)" fill="#6c63ff"/>
      <path id="Path_65" data-name="Path 65" d="M476.96,530.932a.287.287,0,0,1-.172-.057l0,0-.649-.5a.289.289,0,0,1,.351-.458l.421.323.994-1.3a.289.289,0,0,1,.4-.053l-.006.008.006-.008a.289.289,0,0,1,.053.4l-1.169,1.525A.289.289,0,0,1,476.96,530.932Z" transform="translate(-400.697 -426.636)" fill="#fff"/>
      <path id="Path_66" data-name="Path 66" d="M296.185,776.5H200.479a.251.251,0,0,1,0-.5h95.705a.251.251,0,0,1,0,.5Z" transform="translate(-194.181 -611.718)" fill="#3f3d56"/>
    </g>
    <text id="List_your_products_and_make_more_money." data-name="List your products and make more 
money." transform="translate(50 321)" fill="#111822" font-size="15" font-family="Montserrat-Bold, Montserrat" font-weight="700"><tspan x="0" y="0">List your products and make more </tspan><tspan x="0" y="19">money.</tspan></text>
    <text id="People_come_here_to_browser_and_buy_fashion_the_more_you_list_the_higher_the_sales_you_can_make." data-name="People come here to browser 
and buy fashion, the more you 
list the higher the sales you can 
make." transform="translate(46 373)" fill="#111822" font-size="17" font-family="Montserrat-Regular, Montserrat"><tspan x="0" y="0">People come here to browser </tspan><tspan x="0" y="20">and buy fashion, the more you </tspan><tspan x="0" y="40">list the higher the sales you can </tspan><tspan x="0" y="60">make.</tspan></text>
  </g>
</svg>
