<svg xmlns="http://www.w3.org/2000/svg" xmlns:xlink="http://www.w3.org/1999/xlink" width="319" height="415" viewBox="0 0 319 415">
  <defs>
    <linearGradient id="linear-gradient" x1="0.505" y1="1.007" x2="0.505" gradientUnits="objectBoundingBox">
      <stop offset="0" stop-color="gray" stop-opacity="0.251"/>
      <stop offset="0.54" stop-color="gray" stop-opacity="0.122"/>
      <stop offset="1" stop-color="gray" stop-opacity="0.102"/>
    </linearGradient>
  </defs>
  <g id="itro2" transform="translate(-28 -512)">
    <rect id="Rectangle_38" data-name="Rectangle 38" width="319" height="415" rx="13" transform="translate(28 512)" fill="#fff"/>
    <rect id="Rectangle_39" data-name="Rectangle 39" width="319" height="226" rx="13" transform="translate(28 512)" fill="#fedfff"/>
    <text id="Relax_and_wait_for_orders" data-name="Relax and wait for orders" transform="translate(89 766)" fill="#111822" font-size="15" font-family="Montserrat-Bold, Montserrat" font-weight="700"><tspan x="0" y="0">Relax and wait for orders</tspan></text>
    <text id="Every_time_someone_buys_your_product_you_get_a_notification_with_all_order_details_all_you_need_to_do_is_to_ship_the_product_and_get_your_money_as_soon_as_the_customer_confirms_the_delivery." data-name="Every time someone buys your product you get a notification with all order details, all you need to do is to ship the product and get your money as soon as the customer confirms the delivery." transform="translate(49 778)" fill="#111822" font-size="17" font-family="Montserrat-Regular, Montserrat"><tspan x="0" y="16">Every time someone buys your </tspan><tspan x="0" y="36">product you get a notification </tspan><tspan x="0" y="56">with all order details, all you need </tspan><tspan x="0" y="76">to do is to ship the product and </tspan><tspan x="0" y="96">get your money as soon as the </tspan><tspan x="0" y="116">customer confirms the delivery.</tspan></text>
    <g id="Group_22" data-name="Group 22" transform="translate(-181 411.399)">
      <g id="Group_2" data-name="Group 2" transform="translate(342.78 122.601)">
        <rect id="Rectangle_76" data-name="Rectangle 76" width="2.437" height="20.08" rx="1.218" transform="translate(80.194 37.578)" fill="#3f3d56"/>
        <rect id="Rectangle_80" data-name="Rectangle 80" width="81.508" height="165.654" rx="9" fill="#3f3d56"/>
        <path id="Path_176" data-name="Path 176" d="M529.691,199h-9.35v1.125a5.329,5.329,0,0,1-5.332,5.329H485.274a5.329,5.329,0,0,1-5.332-5.329V199h-8.754a6.473,6.473,0,0,0-6.473,6.473V349.562a6.473,6.473,0,0,0,6.473,6.473h58.5a6.473,6.473,0,0,0,6.473-6.473V205.484A6.473,6.473,0,0,0,529.691,199Z" transform="translate(-459.527 -194.685)" fill="#fff"/>
        <rect id="Rectangle_81" data-name="Rectangle 81" width="11.382" height="2.31" rx="1.155" transform="translate(32.892 4.947)" fill="#e6e8ec"/>
        <circle id="Ellipse_5" data-name="Ellipse 5" cx="1.312" cy="1.312" r="1.312" transform="translate(45.996 4.79)" fill="#e6e8ec"/>
        <circle id="Ellipse_11" data-name="Ellipse 11" cx="15.419" cy="15.419" r="15.419" transform="translate(25.833 69.442)" fill="#fff"/>
        <path id="Path_222" data-name="Path 222" d="M561.426,430.219a20.608,20.608,0,1,1-20.608-20.609A20.608,20.608,0,0,1,561.426,430.219Zm-22.99,10.908,15.287-15.287a1.328,1.328,0,0,0,0-1.881l-1.881-1.867a1.326,1.326,0,0,0-1.878,0L537.5,434.56l-5.822-5.835a1.334,1.334,0,0,0-1.881,0l-1.881,1.892a1.334,1.334,0,0,0,0,1.881l8.643,8.64a1.328,1.328,0,0,0,1.881,0Z" transform="translate(-499.894 -347.511)"/>
      </g>
      <g id="Group_1" data-name="Group 1" transform="translate(288.67 144.35)">
        <rect id="Rectangle_77" data-name="Rectangle 77" width="1.228" height="5.942" rx="0.614" transform="translate(55.941 10.908)" fill="#3f3d56"/>
        <rect id="Rectangle_78" data-name="Rectangle 78" width="1.384" height="10.342" rx="0.692" transform="translate(55.896 21.789)" fill="#3f3d56"/>
        <rect id="Rectangle_79" data-name="Rectangle 79" width="1.318" height="10.431" rx="0.659" transform="translate(55.919 35.751)" fill="#3f3d56"/>
        <path id="Path_190" data-name="Path 190" d="M377.46,474.88a.227.227,0,0,0,.27.035A.954.954,0,0,1,377.46,474.88Z" transform="translate(-337.868 -411.546)" fill="url(#linear-gradient)"/>
        <path id="Path_192" data-name="Path 192" d="M375.7,491l-.266,1.449-.205,1.108-.373,2.027-3.619,2.534s-.326-.279-.864-.719a63.057,63.057,0,0,0-6.889-5.043,7.709,7.709,0,0,0-1.894-.873Z" transform="translate(-325.919 -423.681)" fill="#feb9b9"/>
        <path id="Path_194" data-name="Path 194" d="M364.119,483.218s4.219.724,4.467-1.078-2.172-2.776-4.222-2.9-14.354.724-14.354.724-2.17,2.895,5.668,3.379Z" transform="translate(-316.996 -414.822)" fill="#3f3d56"/>
        <rect id="Rectangle_82" data-name="Rectangle 82" width="22.074" height="26.175" transform="translate(34.277 8.933)" fill="#2f2e41"/>
        <rect id="Rectangle_83" data-name="Rectangle 83" width="22.074" height="26.175" transform="translate(34.277 9.052)" opacity="0.1"/>
        <path id="Path_198" data-name="Path 198" d="M225.7,429.444a3.543,3.543,0,0,0-1.345.952,53.321,53.321,0,0,0-5.411,7.371c-4.074-4.852.434-8.686,2.356-10,.467-.319.781-.494.781-.494Z" transform="translate(-217.289 -375.704)" fill="#feb9b9"/>
        <path id="Path_199" data-name="Path 199" d="M382.059,288.22s1.086,7.6,4.825,9.408-4.825,5.191-4.825,5.191l-11.7-4.346s6.635-2.172,5.307-8.565Z" transform="translate(-332.523 -271.026)" fill="#feb9b9"/>
        <path id="Path_200" data-name="Path 200" d="M323.931,473.16l-.265,1.444-.215,1.112-.373,2.027-3.619,2.531s-.326-.277-.864-.717a62.78,62.78,0,0,0-6.892-5.043,7.662,7.662,0,0,0-1.894-.873Z" transform="translate(-286.939 -410.251)" fill="#feb9b9"/>
        <path id="Path_202" data-name="Path 202" d="M311.739,466.083s3.787.027,4.015-1.78-2.064-2.776-4.015-2.9-13.8.781-13.8.781-1.682,3.413,5.774,3.9Z" transform="translate(-277.878 -401.394)" fill="#2f2e41"/>
        <path id="Path_204" data-name="Path 204" d="M372.758,494.538c-.166-.082-.331-.166-.495-.247l-.445-.561-5.836-7.4v.129c-.039,1.236-.46,11.03-3.737,11.934-3.5.964-7.717,1.206-9.641-5.307s-5.438-20.746-9.047-21.592l5.369-4.4a32.162,32.162,0,0,1,5,8.137c-.054-.247-2.509-11.717-.494-13.746h17.614s2.719,7.744,4.583,11.581c1.451,2.979,3.629,10.021,5.031,14.787A5.658,5.658,0,0,1,372.758,494.538Z" transform="translate(-312.345 -401.46)" fill="#3f3d56"/>
        <path id="Path_205" data-name="Path 205" d="M399.835,418.8c-2.719,1.609-14.656.954-18.539.692l-1.058-.077c-.114,0,.017-.064.017-.064l.109-1.1,2.895-7.356,15.5-8.988a13.489,13.489,0,0,0-.393,4.054A94.129,94.129,0,0,0,399.835,418.8Z" transform="translate(-339.924 -356.612)" opacity="0.1"/>
        <path id="Path_206" data-name="Path 206" d="M399.442,417.35c-2.719,1.609-14.656.954-18.539.692l-1.058-.074-.176-.015.193-.049.954-.247,2.049-8.2,15.5-8.985a13.5,13.5,0,0,0-.393,4.054A94.091,94.091,0,0,0,399.442,417.35Z" transform="translate(-339.531 -355.529)" fill="#efefef"/>
        <path id="Path_207" data-name="Path 207" d="M398.465,404.519c-3.152.727-10.088,2.859-12.752,8.009-1.777,3.429-3.273,4.9-4.316,5.515l-1.058-.074a.607.607,0,0,0,.017-.064l.954-.247,2.049-8.2,15.5-8.985A13.557,13.557,0,0,0,398.465,404.519Z" transform="translate(-340.035 -355.529)" opacity="0.1"/>
        <path id="Path_208" data-name="Path 208" d="M234.282,427.29l3.619,2.17a3.543,3.543,0,0,0-1.345.952c-.3-.88-2.194-2.109-3.055-2.632C233.968,427.466,234.282,427.29,234.282,427.29Z" transform="translate(-229.494 -375.72)" opacity="0.1"/>
        <path id="Path_209" data-name="Path 209" d="M376.977,471.725a.215.215,0,0,1-.247-.035.859.859,0,0,0,.247.035Z" transform="translate(-337.318 -409.145)" opacity="0.1"/>
        <path id="Path_210" data-name="Path 210" d="M277.115,268.148a7.172,7.172,0,0,1-5.549-2.052s-9.641,2.776-12.906,9.047-25.46,18.576-25.46,18.576,3.861,2.17,3.5,3.255l14.6-8.444s5.191-3.737,6.632-4.583,9.41-6.031,11.1,8.081,0,12.424,0,12.424,2.413.845,5.91-5.91,14.352-8.323,14.352-8.323l.6-7.114s2.153-4.716.494-6.674a4.2,4.2,0,0,1-.967-2.042c-.274-1.807,0-4.818,3.841-7.319,5.91-3.861,8.2-7,8.2-7s.121-2.294-3.5-3.379-18.334-7-18.334-7l-.494,2.052,11.61,8.194s-5.789,4.7-10.382,4.583C280.363,264.529,281.216,268.026,277.115,268.148Z" transform="translate(-229.267 -242.027)"/>
        <path id="Path_211" data-name="Path 211" d="M397.955,292.627a23.562,23.562,0,0,1-.667-2.947l-6.392,1.689a7.007,7.007,0,0,1-.146,3.688,6.874,6.874,0,0,0,7.205-2.43Z" transform="translate(-347.873 -272.125)" opacity="0.1"/>
        <circle id="Ellipse_10" data-name="Ellipse 10" cx="6.874" cy="6.874" r="6.874" transform="translate(37.899 9.054)" fill="#feb9b9"/>
        <path id="Path_213" data-name="Path 213" d="M428.67,507.07s3.98,7.841,2.773,10.251" transform="translate(-376.42 -435.779)" opacity="0.1"/>
        <path id="Path_221" data-name="Path 221" d="M356.234,218.712a48.723,48.723,0,0,1,5.6,1.483,2.779,2.779,0,0,0,1.449.054c.729-.225,1.322-.989,2.079-.967a2.3,2.3,0,0,1,1.261.635,15.507,15.507,0,0,1,1.73,1.543c1.3,1.406,2.1,3.3,3.28,4.83s2.866,3.324,4.545,2.623a9.7,9.7,0,0,1-8.749,7.51c-1.614.111-3.268-.225-4.83.247a4.185,4.185,0,0,1-1.219.3c-.9,0-1.624-.826-2.185-1.629-1.315-1.888-2.356-4.032-3.836-5.754a3.155,3.155,0,0,0-1.757-1.216,3.254,3.254,0,0,0-1.943.546,9.117,9.117,0,0,0-2.843,1.978,3.935,3.935,0,0,0-.959,3.461,8.073,8.073,0,0,1,.583,1.938c.015,1.1-.954,1.9-1.144,2.966a11.121,11.121,0,0,0-.047,1.35,5.535,5.535,0,0,1-2.039,3.582,2.571,2.571,0,0,0-.934,1.293c-.077.378,0,.776-.049,1.159a2.1,2.1,0,0,1-1.931,1.555,5.569,5.569,0,0,1-2.9-.344,3.34,3.34,0,0,0,1.622-3.542c-.373-1.958-2.341-3.364-2.172-5.356a6.206,6.206,0,0,1,.544-1.762,16.147,16.147,0,0,0,.929-3.339,5.626,5.626,0,0,0-.057-2.662,8.275,8.275,0,0,0-1.2-2.025,11.511,11.511,0,0,1-1.392-2.85,2,2,0,0,1-.133-.944,1.948,1.948,0,0,1,.606-.976,7.963,7.963,0,0,1,3.666-2.628,8.252,8.252,0,0,1,2.081-.079,24.567,24.567,0,0,0,3.616-.153c.989-.116,2.659-.1,3.5-.742.781-.6,1.221-1.35,2.183-1.73a6.427,6.427,0,0,1,3.05-.349Z" transform="translate(-307.805 -218.66)" fill="#2f2e41"/>
      </g>
      <ellipse id="Ellipse_9" data-name="Ellipse 9" cx="9.972" cy="1.686" rx="9.972" ry="1.686" transform="translate(454.859 284.471)"/>
      <path id="Path_179" data-name="Path 179" d="M889.115,827.224a2.9,2.9,0,0,0,.95-1.436,1.28,1.28,0,0,0-.665-1.461,1.868,1.868,0,0,0-1.756.617,2.344,2.344,0,0,1-1.709.823,2.6,2.6,0,0,0,.807-2.433,1.025,1.025,0,0,0-.226-.5c-.337-.362-.953-.208-1.357.079-1.29.905-1.649,2.659-1.657,4.233a7.955,7.955,0,0,1-.025-1.736,1.791,1.791,0,0,0-.655-1.545,1.969,1.969,0,0,0-.992-.233,2.066,2.066,0,0,0-1.622.461,1.6,1.6,0,0,0,.065,1.984,6.317,6.317,0,0,0,1.679,1.344,3.72,3.72,0,0,1,1.2,1.143,1.031,1.031,0,0,1,.089.206h3.623a10.181,10.181,0,0,0,2.252-1.551Z" transform="translate(-420.16 -543.824)"/>
      <ellipse id="Ellipse_9-2" data-name="Ellipse 9" cx="6.581" cy="1.113" rx="6.581" ry="1.113" transform="translate(322.672 286.361)" fill="#efefef"/>
      <path id="Path_179-2" data-name="Path 179" d="M885.976,825.66a1.917,1.917,0,0,0,.627-.948.845.845,0,0,0-.439-.964c-.4-.154-.833.126-1.159.408a1.548,1.548,0,0,1-1.128.543,1.715,1.715,0,0,0,.532-1.605.677.677,0,0,0-.149-.327c-.222-.239-.629-.137-.9.052a3.338,3.338,0,0,0-1.093,2.794,5.264,5.264,0,0,1-.016-1.146,1.183,1.183,0,0,0-.432-1.019,1.3,1.3,0,0,0-.655-.154,1.363,1.363,0,0,0-1.07.3,1.055,1.055,0,0,0,.043,1.309,4.149,4.149,0,0,0,1.108.886,2.454,2.454,0,0,1,.791.754.682.682,0,0,1,.059.136h2.391a6.721,6.721,0,0,0,1.486-1.025Z" transform="translate(-554.001 -540.006)" fill="#efefef"/>
      <ellipse id="Ellipse_12" data-name="Ellipse 12" cx="6.581" cy="1.113" rx="6.581" ry="1.113" transform="translate(285.454 286.361)" fill="#efefef"/>
      <path id="Path_223" data-name="Path 223" d="M885.976,825.66a1.917,1.917,0,0,0,.627-.948.845.845,0,0,0-.439-.964c-.4-.154-.833.126-1.159.408a1.548,1.548,0,0,1-1.128.543,1.715,1.715,0,0,0,.532-1.605.677.677,0,0,0-.149-.327c-.222-.239-.629-.137-.9.052a3.338,3.338,0,0,0-1.093,2.794,5.264,5.264,0,0,1-.016-1.146,1.183,1.183,0,0,0-.432-1.019,1.3,1.3,0,0,0-.655-.154,1.363,1.363,0,0,0-1.07.3,1.055,1.055,0,0,0,.043,1.309,4.149,4.149,0,0,0,1.108.886,2.454,2.454,0,0,1,.791.754.682.682,0,0,1,.059.136h2.391a6.721,6.721,0,0,0,1.486-1.025Z" transform="translate(-591.219 -540.006)" fill="#efefef"/>
      <rect id="Rectangle_22" data-name="Rectangle 22" width="200.03" height="0.404" transform="translate(282 287.952)" fill="#2f2e41"/>
      <path id="Path_177" data-name="Path 177" d="M788.961,156.847s-20.882-1.26-18.421,13.372a3.556,3.556,0,0,0,1.855,3.76s.037-1.084,2.143-.714a9.8,9.8,0,0,0,2.269.109,4.727,4.727,0,0,0,2.772-1.133h0s5.87-2.425,8.152-12.018c0,0,1.689-2.093,1.622-2.631l-3.524,1.505s1.205,2.542.248,4.654c0,0-.114-4.563-.791-4.464-.136.02-1.83.88-1.83.88s2.071,4.427.508,7.646c0,0,.593-5.456-1.156-7.326l-2.48,1.448s2.421,4.573.779,8.306c0,0,.421-5.724-1.3-7.953l-2.247,1.753s2.274,4.506.888,7.6c0,0-.181-6.661-1.374-7.165a13.815,13.815,0,0,0-2.267,2.445s1.557,3.274.59,5c0,0-.593-4.439-1.079-4.464,0,0-1.959,2.941-2.163,4.96a10.688,10.688,0,0,1,1.689-5.238,5.908,5.908,0,0,0-3,1.551s.3-2.078,3.484-2.262a13.638,13.638,0,0,1,2.051-2.366,12.842,12.842,0,0,0-5.077.585s1.686-1.962,5.657-1.069l2.22-1.813s-4.161-.568-5.927.06c0,0,2.031-1.736,6.525-.471l2.416-1.443a22.156,22.156,0,0,0-5.662-.5s2.232-1.2,6.371.1l1.736-.776s-2.6-.511-3.36-.593-.8-.29-.8-.29a9.015,9.015,0,0,1,4.883.543S789.023,157.078,788.961,156.847Z" transform="translate(-316.694 -23.049)"/>
      <path id="Path_178" data-name="Path 178" d="M733.555,130.657s-9.424-.568-8.323,6.044a1.611,1.611,0,0,0,.838,1.7s.017-.5.97-.325a4.342,4.342,0,0,0,1.024.05,2.123,2.123,0,0,0,1.252-.516h0s2.654-1.1,3.685-5.431c0,0,.761-.945.731-1.188l-1.592.679a2.861,2.861,0,0,1,.117,2.1s-.052-2.061-.357-2.014c-.062,0-.828.4-.828.4s.937,2,.231,3.455c0,0,.268-2.465-.523-3.311l-1.121.665a4.947,4.947,0,0,1,.352,3.752s.191-2.587-.588-3.593l-1.014.794s1.027,2.036.4,3.435c0,0-.084-3.011-.622-3.239a6.223,6.223,0,0,0-1.024,1.106s.7,1.488.268,2.259c0,0-.268-2.006-.5-2.017a6.68,6.68,0,0,0-.977,2.232,4.841,4.841,0,0,1,.764-2.366,2.669,2.669,0,0,0-1.357.7s.139-.94,1.575-1.022a6.789,6.789,0,0,1,.927-1.071,5.809,5.809,0,0,0-2.294.266,2.576,2.576,0,0,1,2.554-.484l.992-.818a8.523,8.523,0,0,0-2.679.026s.918-.784,2.949-.213l1.091-.652a9.97,9.97,0,0,0-2.559-.222,3.932,3.932,0,0,1,2.879.044l.781-.35s-1.175-.231-1.52-.268-.362-.131-.362-.131a4.065,4.065,0,0,1,2.207.248A10.2,10.2,0,0,0,733.555,130.657Z" transform="translate(-289.899 -4.605)" fill="#3f3d56"/>
      <path id="Path_224" data-name="Path 224" d="M733.555,130.657s-9.424-.568-8.323,6.044a1.611,1.611,0,0,0,.838,1.7s.017-.5.97-.325a4.342,4.342,0,0,0,1.024.05,2.123,2.123,0,0,0,1.252-.516h0s2.654-1.1,3.685-5.431c0,0,.761-.945.731-1.188l-1.592.679a2.861,2.861,0,0,1,.117,2.1s-.052-2.061-.357-2.014c-.062,0-.828.4-.828.4s.937,2,.231,3.455c0,0,.268-2.465-.523-3.311l-1.121.665a4.947,4.947,0,0,1,.352,3.752s.191-2.587-.588-3.593l-1.014.794s1.027,2.036.4,3.435c0,0-.084-3.011-.622-3.239a6.223,6.223,0,0,0-1.024,1.106s.7,1.488.268,2.259c0,0-.268-2.006-.5-2.017a6.68,6.68,0,0,0-.977,2.232,4.841,4.841,0,0,1,.764-2.366,2.669,2.669,0,0,0-1.357.7s.139-.94,1.575-1.022a6.789,6.789,0,0,1,.927-1.071,5.809,5.809,0,0,0-2.294.266,2.576,2.576,0,0,1,2.554-.484l.992-.818a8.523,8.523,0,0,0-2.679.026s.918-.784,2.949-.213l1.091-.652a9.97,9.97,0,0,0-2.559-.222,3.932,3.932,0,0,1,2.879.044l.781-.35s-1.175-.231-1.52-.268-.362-.131-.362-.131a4.065,4.065,0,0,1,2.207.248A10.2,10.2,0,0,0,733.555,130.657Z" transform="translate(-435.227 96.33)" fill="#3f3d56"/>
    </g>
  </g>
</svg>
