<svg xmlns="http://www.w3.org/2000/svg" width="36.619" height="32.352" viewBox="0 0 36.619 32.352">
  <g id="like" transform="translate(0 -29.836)">
    <g id="Group_181" data-name="Group 181" transform="translate(0 29.836)">
      <path id="Path_346" data-name="Path 346" d="M33.948,33.014a9.223,9.223,0,0,0-14.726,1.06,14.041,14.041,0,0,0-.912,1.478,14.029,14.029,0,0,0-.912-1.478,9.223,9.223,0,0,0-14.726-1.06A11.1,11.1,0,0,0,0,40.387c0,3.047,1.19,5.881,3.744,8.919a83.347,83.347,0,0,0,9.37,8.754c1.417,1.208,2.882,2.456,4.443,3.821l.047.041a1.073,1.073,0,0,0,1.413,0l.047-.041c1.56-1.365,3.026-2.614,4.443-3.822a83.336,83.336,0,0,0,9.37-8.754c2.554-3.038,3.744-5.872,3.744-8.919A11.1,11.1,0,0,0,33.948,33.014ZM22.114,56.426c-1.222,1.041-2.479,2.112-3.8,3.265-1.326-1.152-2.583-2.224-3.8-3.265C7.062,50.084,2.146,45.894,2.146,40.387a8.958,8.958,0,0,1,2.136-5.954,7.162,7.162,0,0,1,5.446-2.451,7.233,7.233,0,0,1,5.92,3.333A12.719,12.719,0,0,1,17.29,38.58a1.073,1.073,0,0,0,2.04,0,12.721,12.721,0,0,1,1.642-3.266,7.081,7.081,0,0,1,11.366-.881,8.958,8.958,0,0,1,2.136,5.954C34.474,45.894,29.557,50.084,22.114,56.426Z" transform="translate(0 -29.836)"/>
    </g>
  </g>
</svg>
