<svg xmlns="http://www.w3.org/2000/svg" width="546" height="546" viewBox="0 0 546 546">
  <g id="order" transform="translate(-132 -125)">
    <circle id="Ellipse_85" data-name="Ellipse 85" cx="273" cy="273" r="273" transform="translate(132 125)" fill="#fff"/>
    <g id="page" transform="translate(316 258)">
      <path id="Path_199" data-name="Path 199" d="M143.434,66.093a30.58,30.58,0,0,1-30.57-30.57V0H18.342A18.4,18.4,0,0,0,0,18.342V220.1a18.4,18.4,0,0,0,18.342,18.342h142.27A18.394,18.394,0,0,0,178.954,220.1V66.093ZM33.078,93.543h66.09a6.114,6.114,0,1,1,0,12.228H33.078a6.114,6.114,0,1,1,0-12.228ZM152.053,198.276H33.078a6.114,6.114,0,1,1,0-12.228H152.053a6.114,6.114,0,1,1,0,12.228Zm0-46.282H33.078a6.114,6.114,0,1,1,0-12.228H152.053a6.114,6.114,0,1,1,0,12.228Zm0,0" transform="translate(0 0)" fill="#f2e3a5"/>
      <path id="Path_200" data-name="Path 200" d="M222.944,59.345h27.023L204.6,14.1V41A18.356,18.356,0,0,0,222.944,59.345Zm0,0" transform="translate(-79.51 -5.48)" fill="#f2e3a5"/>
    </g>
  </g>
</svg>
