<svg xmlns="http://www.w3.org/2000/svg" width="150" height="150" viewBox="0 0 150 150">
  <g id="place-holder-image" transform="translate(-328 -369)">
    <rect id="Rectangle_124" data-name="Rectangle 124" width="150" height="150" transform="translate(328 369)" fill="#ee5253"/>
    <g id="image-gallery" transform="translate(382 423)">
      <g id="Group_183" data-name="Group 183" transform="translate(0 15.396)">
        <path id="Path_347" data-name="Path 347" d="M30.36,34.575a3.47,3.47,0,0,1-.887-.115l-26.9-7.2a3.511,3.511,0,0,1-2.46-4.262l3.394-12.65a.87.87,0,0,1,1.68.449L1.8,23.44a1.765,1.765,0,0,0,1.235,2.138l26.888,7.2a1.732,1.732,0,0,0,2.117-1.225L33.4,26.519a.87.87,0,0,1,1.68.452L33.719,32a3.474,3.474,0,0,1-3.359,2.576Z" transform="translate(0 -9.701)" fill="#f1f2f6"/>
      </g>
      <g id="Group_184" data-name="Group 184" transform="translate(6.958 2)">
        <path id="Path_348" data-name="Path 348" d="M35.312,29.833H7.479A3.483,3.483,0,0,1,4,26.354V5.479A3.483,3.483,0,0,1,7.479,2H35.312a3.483,3.483,0,0,1,3.479,3.479V26.354A3.483,3.483,0,0,1,35.312,29.833ZM7.479,3.74a1.742,1.742,0,0,0-1.74,1.74V26.354a1.742,1.742,0,0,0,1.74,1.74H35.312a1.742,1.742,0,0,0,1.74-1.74V5.479a1.742,1.742,0,0,0-1.74-1.74Z" transform="translate(-4 -2)" fill="#f1f2f6"/>
      </g>
      <g id="Group_185" data-name="Group 185" transform="translate(12.176 7.219)">
        <path id="Path_349" data-name="Path 349" d="M10.479,11.958a3.479,3.479,0,1,1,3.479-3.479A3.483,3.483,0,0,1,10.479,11.958Zm0-5.219a1.74,1.74,0,1,0,1.74,1.74A1.742,1.742,0,0,0,10.479,6.74Z" transform="translate(-7 -5)" fill="#f1f2f6"/>
      </g>
      <g id="Group_186" data-name="Group 186" transform="translate(7.079 11.654)">
        <path id="Path_350" data-name="Path 350" d="M4.94,23.867a.869.869,0,0,1-.616-1.484l8.216-8.216a2.674,2.674,0,0,1,3.69,0l2.446,2.446,6.77-8.124a2.614,2.614,0,0,1,1.987-.939h.019a2.608,2.608,0,0,1,1.981.91l9.1,10.615a.87.87,0,1,1-1.32,1.132l-9.1-10.615a.861.861,0,0,0-.661-.3.923.923,0,0,0-.668.313L19.4,18.459a.866.866,0,0,1-.63.311.837.837,0,0,1-.654-.254L15,15.4a.893.893,0,0,0-1.23,0L5.554,23.613a.867.867,0,0,1-.614.254Z" transform="translate(-4.07 -7.55)" fill="#f1f2f6"/>
      </g>
    </g>
  </g>
</svg>
