<svg xmlns="http://www.w3.org/2000/svg" width="159.927" height="159.927" viewBox="0 0 159.927 159.927">
  <g id="products" transform="translate(-2 -2)">
    <path id="Path_204" data-name="Path 204" d="M153.931,71.3H140.6V28.655a2.681,2.681,0,0,0-.448-1.479L125.741,5.569A7.935,7.935,0,0,0,119.093,2H23.51a7.935,7.935,0,0,0-6.642,3.558L2.448,27.175A2.681,2.681,0,0,0,2,28.655V137.938a8,8,0,0,0,8,8H92.625v8a8,8,0,0,0,8,8h53.309a8,8,0,0,0,8-8V79.3a8,8,0,0,0-8-8ZM140.6,76.633h5.331v6.893l-.781-.781a2.665,2.665,0,0,0-3.769,0l-.781.781ZM55.309,47.313H7.331V31.32H55.309ZM60.64,31.32H81.963V65.755l-9-7.2a2.665,2.665,0,0,0-3.332,0l-9,7.2Zm26.654,0h47.978V47.313H87.294ZM21.311,8.5a2.625,2.625,0,0,1,2.2-1.173h95.583A2.633,2.633,0,0,1,121.3,8.514l11.656,17.475H9.647ZM10,140.6a2.665,2.665,0,0,1-2.665-2.665V52.644H55.309V71.3a2.665,2.665,0,0,0,4.331,2.082L71.3,64.052l11.661,9.329A2.665,2.665,0,0,0,87.294,71.3V52.644h47.978V71.3H100.622a8,8,0,0,0-8,8V140.6Zm146.6,13.327a2.665,2.665,0,0,1-2.665,2.665H100.622a2.665,2.665,0,0,1-2.665-2.665V79.3a2.665,2.665,0,0,1,2.665-2.665h34.651V89.96a2.665,2.665,0,0,0,4.55,1.884l3.446-3.446,3.446,3.446a2.665,2.665,0,0,0,1.884.781,2.631,2.631,0,0,0,1.021-.2,2.665,2.665,0,0,0,1.645-2.463V76.633h2.665A2.665,2.665,0,0,1,156.6,79.3Z" transform="translate(0 0)" fill="#b5b5b5"/>
    <path id="Path_205" data-name="Path 205" d="M47.508,47.07l-3.446-3.446-3.769,3.769,5.331,5.331a2.665,2.665,0,0,0,3.769,0L60.055,42.062l-3.769-3.769Z" transform="translate(63.775 60.444)" fill="#b5b5b5"/>
    <path id="Path_206" data-name="Path 206" d="M47.508,58.07l-3.446-3.446-3.769,3.769,5.331,5.331a2.665,2.665,0,0,0,3.769,0L60.055,53.062l-3.769-3.769Z" transform="translate(63.775 78.764)" fill="#b5b5b5"/>
    <path id="Path_207" data-name="Path 207" d="M50,42H71.324v5.331H50Z" transform="translate(79.942 66.618)" fill="#b5b5b5"/>
    <path id="Path_208" data-name="Path 208" d="M50,53H71.324v5.331H50Z" transform="translate(79.942 84.938)" fill="#b5b5b5"/>
    <path id="Path_209" data-name="Path 209" d="M50,49H71.324v5.331H50Z" transform="translate(79.942 78.276)" fill="#b5b5b5"/>
    <path id="Path_210" data-name="Path 210" d="M50,38h5.331v5.331H50Z" transform="translate(79.942 59.956)" fill="#b5b5b5"/>
    <path id="Path_211" data-name="Path 211" d="M54,38H64.662v5.331H54Z" transform="translate(86.603 59.956)" fill="#b5b5b5"/>
  </g>
</svg>
