<svg xmlns="http://www.w3.org/2000/svg" width="933.676" height="596.507" viewBox="0 0 933.676 596.507">
  <g id="search-no-found" transform="translate(-139.033 -186.522)">
    <path id="Path_197" data-name="Path 197" d="M310.24,265c129.453-55.8,398.96-116.168,587-48.5s188.041,232.68,165.164,319.168S940.765,504.42,805.732,562.45,681.3,732.636,522.275,767.789,243.84,775.6,169.628,703.063s3.348-159.584,55.8-225.427,139.5,8.52,160.7-44.639S180.788,320.8,310.24,265Z" fill="rgba(251,247,232,0.81)"/>
    <g id="zoom" transform="translate(388 264.959)">
      <g id="Group_2291" data-name="Group 2291">
        <g id="Group_2290" data-name="Group 2290">
          <path id="Path_195" data-name="Path 195" d="M352.1,44.679A151.9,151.9,0,0,0,131.775,253.695l-11.6,11.6a24,24,0,0,0-33.941,0l0,0-79.2,79.2a24,24,0,0,0,0,33.941l0,0,11.312,11.312a24,24,0,0,0,33.936,0l79.2-79.2a24,24,0,0,0,0-33.941l0,0,11.6-11.6A151.9,151.9,0,0,0,352.1,44.679ZM120.175,299.231l-79.2,79.2a8,8,0,0,1-11.312,0l-11.312-11.32a8,8,0,0,1,0-11.3l79.2-79.2a8.185,8.185,0,0,1,11.312,0l11.312,11.32A8,8,0,0,1,120.175,299.231Zm220.624-50.9a136,136,0,1,1,0-192.336A136,136,0,0,1,340.8,248.327Z" fill="#f3cf3d"/>
        </g>
      </g>
      <g id="Group_2293" data-name="Group 2293">
        <g id="Group_2292" data-name="Group 2292">
          <path id="Path_196" data-name="Path 196" d="M329.479,67.3h0L318.167,78.615a104.128,104.128,0,0,1,0,147.08l11.312,11.312A120.119,120.119,0,0,0,329.479,67.3Z" fill="#f3cf3d"/>
        </g>
      </g>
    </g>
  </g>
</svg>
