<svg xmlns="http://www.w3.org/2000/svg" width="137" height="137" viewBox="0 0 137 137">
  <g id="user" transform="translate(13600 22978)">
    <circle id="Ellipse_150" data-name="Ellipse 150" cx="68.5" cy="68.5" r="68.5" transform="translate(-13600 -22978)" fill="#f1f2f6"/>
    <g id="user-2" data-name="user" transform="translate(-13574 -22952)">
      <g id="Group_375" data-name="Group 375" transform="translate(0)">
        <path id="Path_790" data-name="Path 790" d="M73.3,55.513A42.773,42.773,0,0,0,56.983,45.279a24.823,24.823,0,1,0-28.09,0A43.005,43.005,0,0,0,0,85.875H6.709a36.229,36.229,0,1,1,72.457,0h6.709A42.658,42.658,0,0,0,73.3,55.513ZM42.937,42.938A18.114,18.114,0,1,1,61.052,24.823,18.135,18.135,0,0,1,42.937,42.938Z" transform="translate(0)" fill="#35b23d"/>
      </g>
    </g>
  </g>
</svg>
