<svg xmlns="http://www.w3.org/2000/svg" width="448" height="432.001" viewBox="0 0 448 432.001">
  <g id="add" transform="translate(0 0.001)" opacity="0.19">
    <path id="Path_1" data-name="Path 1" d="M344,224A104,104,0,1,0,448,328,104,104,0,0,0,344,224Zm80,112H352v64H336V336H264V320h72V248h16v72h72Zm0,0"/>
    <path id="Path_2" data-name="Path 2" d="M344,56a24,24,0,1,1-24-24A24,24,0,0,1,344,56Zm0,0"/>
    <path id="Path_3" data-name="Path 3" d="M0,0V265.129L105.008,76.113a8,8,0,0,1,12.055-2.3l162.2,132.742L371.2,137.6a8,8,0,0,1,10.457.742L448,204.687V0ZM320,96a40,40,0,1,1,40-40A40,40,0,0,1,320,96Zm0,0"/>
    <path id="Path_4" data-name="Path 4" d="M292,216.992l2.328,1.9A119.443,119.443,0,0,1,448,268.39V227.312l-72.754-72.754Zm0,0"/>
    <path id="Path_5" data-name="Path 5" d="M279.2,227.2,114.344,92.258,5.6,288H231a120.477,120.477,0,0,1,48.2-60.8Zm0,0"/>
  </g>
</svg>
