<svg xmlns="http://www.w3.org/2000/svg" width="20.644" height="23.179" viewBox="0 0 20.644 23.179">
  <g id="admins-mobile-disabled" transform="translate(-28.045)">
    <path id="Path_667" data-name="Path 667" d="M350.948,120.972h1.358v3.449h2.386V119h-6.129v5.418h2.386Z" transform="translate(-306.003 -113.615)" fill="#a4b0be"/>
    <path id="Path_668" data-name="Path 668" d="M350.4,4.029V3.043a1.685,1.685,0,0,1,3.369,0V4.03h1.358V3.043a3.043,3.043,0,0,0-6.086,0V4.03Z" transform="translate(-306.466)" fill="#a4b0be"/>
    <path id="Path_669" data-name="Path 669" d="M41.2,131.234v-5.34a8.763,8.763,0,0,0-9.914,14.387v-1.145a4.487,4.487,0,0,1,3.045-4.244,3.314,3.314,0,1,1,4.966,0,4.487,4.487,0,0,1,3.045,4.244v1.145a8.76,8.76,0,0,0,2.945-9.048Z" transform="translate(0 -119.07)" fill="#a4b0be"/>
    <path id="Path_670" data-name="Path 670" d="M180.454,257.909a1.955,1.955,0,1,0,1.955,1.955,1.955,1.955,0,0,0-1.955-1.955Z" transform="translate(-143.64 -246.233)" fill="#a4b0be"/>
    <path id="Path_671" data-name="Path 671" d="M137.92,377.412a3.125,3.125,0,0,0-3.121-3.121h-2.1a3.125,3.125,0,0,0-3.121,3.121v2.056a8.755,8.755,0,0,0,8.34,0v-2.056Z" transform="translate(-96.935 -357.346)" fill="#a4b0be"/>
  </g>
</svg>
