<svg xmlns="http://www.w3.org/2000/svg" width="18.073" height="18.073" viewBox="0 0 18.073 18.073">
  <g id="categories" transform="translate(0)">
    <path id="Path_2025" data-name="Path 2025" d="M5.735,227.667A2.118,2.118,0,0,1,2.7,224.71l4.464-4.464a4.234,4.234,0,0,0-4.015,1.02l-1.985,1.985a4.237,4.237,0,0,0,6.068,5.913l1.83-1.83a4.233,4.233,0,0,0,1.1-4.093Z" transform="translate(0 -212.333)" fill="#ae4ec0"/>
    <path id="Path_2026" data-name="Path 2026" d="M229.165,1.241a4.236,4.236,0,0,0-5.913-.077L221.267,3.15a4.234,4.234,0,0,0-1.02,4.015L224.711,2.7a2.118,2.118,0,0,1,2.957,3.034l-4.425,4.425a4.233,4.233,0,0,0,4.093-1.1l1.83-1.83A4.235,4.235,0,0,0,229.165,1.241Z" transform="translate(-212.333 0)" fill="#ae4ec0"/>
    <path id="Path_2027" data-name="Path 2027" d="M156.292,162.733a1.059,1.059,0,0,0,1.5,0l4.943-4.943a1.059,1.059,0,0,0-1.478-1.517l-4.981,4.981A1.059,1.059,0,0,0,156.292,162.733Z" transform="translate(-150.475 -150.476)" fill="#ae4ec0"/>
  </g>
</svg>
