<svg id="check" xmlns="http://www.w3.org/2000/svg" width="195" height="195" viewBox="0 0 195 195">
  <g id="Group_2192" data-name="Group 2192">
    <g id="Group_2191" data-name="Group 2191">
      <path id="Path_2030" data-name="Path 2030" d="M97.5,0A97.5,97.5,0,1,0,195,97.5,97.5,97.5,0,0,0,97.5,0Zm0,181.072A83.572,83.572,0,1,1,181.072,97.5,83.571,83.571,0,0,1,97.5,181.072Z" fill="#ae4ec0"/>
    </g>
  </g>
  <g id="Group_2194" data-name="Group 2194" transform="translate(41.7 55.8)">
    <g id="Group_2193" data-name="Group 2193">
      <path id="Path_2031" data-name="Path 2031" d="M211.492,138.7a6.964,6.964,0,0,0-9.676,0h0L137.1,203.417l-22.934-22.934a6.964,6.964,0,0,0-10.018,9.676q.084.087.171.171l27.857,27.857a6.964,6.964,0,0,0,9.847,0l69.643-69.643A6.964,6.964,0,0,0,211.492,138.7Z" transform="translate(-102.19 -136.743)" fill="#ae4ec0"/>
    </g>
  </g>
</svg>
