<svg xmlns="http://www.w3.org/2000/svg" width="19.819" height="19.343" viewBox="0 0 19.819 19.343">
  <g id="customers" transform="translate(0)">
    <g id="male" transform="translate(7.405 0.841)">
      <path id="Path_1895" data-name="Path 1895" d="M107.821,8.159c1.815,0,3.286-1.826,3.286-4.08S110.624,0,107.821,0s-3.286,1.826-3.286,4.08S106.006,8.159,107.821,8.159Z" transform="translate(-101.614)" fill="#c579d4"/>
      <path id="Path_1896" data-name="Path 1896" d="M41.9,300.442c0-.137,0-.039,0,0Z" transform="translate(-41.895 -286.054)" fill="#c579d4"/>
      <path id="Path_1897" data-name="Path 1897" d="M308.085,301.611c0-.038,0-.261,0,0Z" transform="translate(-295.672 -287.115)" fill="#c579d4"/>
      <path id="Path_1898" data-name="Path 1898" d="M54.313,183.491c-.061-3.925-.562-5.043-4.4-5.751a2.652,2.652,0,0,1-3.6,0c-3.8.7-4.328,1.8-4.4,5.624-.006.312-.008.328-.009.292,0,.068,0,.193,0,.412,0,0,.914,1.883,6.206,1.883s6.206-1.883,6.206-1.883c0-.141,0-.238,0-.305A2.585,2.585,0,0,1,54.313,183.491Z" transform="translate(-41.907 -169.268)" fill="#c579d4"/>
    </g>
    <g id="male-2" data-name="male">
      <path id="Path_1895-2" data-name="Path 1895" d="M108.345,9.46c2.1,0,3.81-2.118,3.81-4.73S111.594,0,108.345,0s-3.81,2.118-3.81,4.73S106.241,9.46,108.345,9.46Z" transform="translate(-101.148)" fill="#ae4ec0"/>
      <path id="Path_1896-2" data-name="Path 1896" d="M41.9,300.454c0-.159,0-.045,0,0Z" transform="translate(-41.895 -283.772)" fill="#ae4ec0"/>
      <path id="Path_1897-2" data-name="Path 1897" d="M308.085,301.631c0-.044,0-.3,0,0Z" transform="translate(-293.693 -284.825)" fill="#ae4ec0"/>
      <path id="Path_1898-2" data-name="Path 1898" d="M56.291,184.408c-.071-4.551-.652-5.847-5.1-6.668a3.075,3.075,0,0,1-4.172,0c-4.4.812-5.017,2.089-5.1,6.52-.007.362-.01.381-.011.339,0,.079,0,.224,0,.478,0,0,1.059,2.183,7.195,2.183s7.2-2.183,7.2-2.183c0-.163,0-.276,0-.354A3,3,0,0,1,56.291,184.408Z" transform="translate(-41.907 -167.917)" fill="#ae4ec0"/>
    </g>
  </g>
</svg>
