<svg id="dashboard" xmlns="http://www.w3.org/2000/svg" width="18.534" height="17.617" viewBox="0 0 18.534 17.617">
  <g id="Group_43" data-name="Group 43" transform="translate(0)">
    <path id="Path_529" data-name="Path 529" d="M18.223,20.5,9.907,12.925a.946.946,0,0,0-1.28,0L.311,20.5a.95.95,0,0,0,.64,1.653H2.28v7.592a.545.545,0,0,0,.545.545H7.383a.545.545,0,0,0,.545-.545v-4.61h2.679v4.61a.545.545,0,0,0,.545.545h4.558a.545.545,0,0,0,.545-.545V22.155h1.328a.95.95,0,0,0,.64-1.653Z" transform="translate(0 -12.675)" fill="#f5f6fa"/>
  </g>
</svg>
