<svg id="experiences" xmlns="http://www.w3.org/2000/svg" width="20.105" height="20.105" viewBox="0 0 20.105 20.105">
  <path id="Path_1903" data-name="Path 1903" d="M55.251,41.978a10.132,10.132,0,0,1,1.435,1.805,9.591,9.591,0,0,0-1.474-.243,2.8,2.8,0,0,0-2.126-1.076,24.536,24.536,0,0,0-.732-2.512A10.056,10.056,0,0,1,55.251,41.978Zm-.182,3.287A2.062,2.062,0,1,1,53.007,43.2,2.062,2.062,0,0,1,55.069,45.264Zm-6.926-6.231a10.066,10.066,0,0,1,3.287.548,23.854,23.854,0,0,1,.915,2.961,2.8,2.8,0,0,0-1.394.821A24.334,24.334,0,0,0,42.741,40.6a9.985,9.985,0,0,1,5.4-1.571ZM38.09,49.086a9.987,9.987,0,0,1,2.944-7.108,10.233,10.233,0,0,1,.828-.742,23.616,23.616,0,0,1,8.659,2.737,2.787,2.787,0,0,0-.269,1.807l-4.485,1.3a16.336,16.336,0,0,0-6.035,3.238l-1.359,1.15a10.123,10.123,0,0,1-.283-2.383Zm2.944,7.108A10.01,10.01,0,0,1,38.6,52.25l1.614-1.366a15.6,15.6,0,0,1,5.764-3.092l4.51-1.309a2.819,2.819,0,0,0,1.438,1.365L50.061,52.5a15.732,15.732,0,0,1-4.589,6.281A10,10,0,0,1,41.035,56.194Zm14.217,0a9.987,9.987,0,0,1-7.108,2.944,10.168,10.168,0,0,1-1.769-.155,16.475,16.475,0,0,0,4.374-6.209l1.894-4.734a2.781,2.781,0,0,0,1.831-.39,19.874,19.874,0,0,1,2.315,6.575A10.12,10.12,0,0,1,55.251,56.194Zm-.2-9.019a2.794,2.794,0,0,0,.6-2.841,8.853,8.853,0,0,1,1.544.365,10.106,10.106,0,0,1,.146,8.46,20.6,20.6,0,0,0-2.286-5.984Z" transform="translate(-38.09 -39.033)" fill="#ae4ec0"/>
</svg>
