<svg xmlns="http://www.w3.org/2000/svg" width="21.485" height="21.452" viewBox="0 0 21.485 21.452">
  <g id="grades" transform="translate(0 -0.392)">
    <g id="Group_253" data-name="Group 253" transform="translate(19.785 15.998)">
      <g id="Group_252" data-name="Group 252">
        <path id="Path_656" data-name="Path 656" d="M472.206,372.422l-.006-.006a.419.419,0,0,0-.594.591l.006.006a.419.419,0,1,0,.594-.591Z" transform="translate(-471.485 -372.293)" fill="#f5f6fa"/>
      </g>
    </g>
    <g id="Group_255" data-name="Group 255" transform="translate(0 15.14)">
      <g id="Group_254" data-name="Group 254">
        <path id="Path_657" data-name="Path 657" d="M21.341,354.229a.419.419,0,1,0-.8.242,2.514,2.514,0,1,1-1.613-1.658.419.419,0,1,0,.264-.8,3.335,3.335,0,0,0-3.366.75H3.568v-.3a.419.419,0,0,0-.715-.3L.122,354.9a.419.419,0,0,0,0,.593l2.73,2.73a.419.419,0,0,0,.715-.3v-.3H15.825a3.351,3.351,0,0,0,5.516-3.4Zm-6.16,2.561H3.149a.419.419,0,0,0-.353.193L1.011,355.2,2.8,353.414a.419.419,0,0,0,.353.193H15.182a3.362,3.362,0,0,0,0,3.184Z" transform="translate(0 -351.845)" fill="#f5f6fa"/>
      </g>
    </g>
    <g id="Group_257" data-name="Group 257" transform="translate(19.778 8.624)">
      <g id="Group_256" data-name="Group 256">
        <path id="Path_658" data-name="Path 658" d="M472.046,196.695l-.006-.006a.419.419,0,0,0-.594.591l.005.006a.419.419,0,0,0,.594-.591Z" transform="translate(-471.325 -196.566)" fill="#f5f6fa"/>
      </g>
    </g>
    <g id="Group_259" data-name="Group 259" transform="translate(19.778 1.25)">
      <g id="Group_258" data-name="Group 258">
        <path id="Path_659" data-name="Path 659" d="M472.046,20.97l-.006-.006a.419.419,0,0,0-.594.591l.005.006a.419.419,0,0,0,.594-.591Z" transform="translate(-471.325 -20.841)" fill="#f5f6fa"/>
      </g>
    </g>
    <g id="Group_261" data-name="Group 261" transform="translate(17.082 1.986)">
      <g id="Group_260" data-name="Group 260">
        <path id="Path_660" data-name="Path 660" d="M408.493,38.407a.419.419,0,0,0-.466.132l-.863,1.07a.419.419,0,0,0,.652.526l.118-.146v1.494a.419.419,0,1,0,.838,0V38.8A.419.419,0,0,0,408.493,38.407Z" transform="translate(-407.071 -38.383)" fill="#f5f6fa"/>
      </g>
    </g>
    <g id="Group_263" data-name="Group 263" transform="translate(16.823 9.081)">
      <g id="Group_262" data-name="Group 262">
        <path id="Path_661" data-name="Path 661" d="M403.153,210.156h-.672a2.408,2.408,0,0,0,.837-1.481,1.136,1.136,0,0,0-1.2-1.2,1.2,1.2,0,0,0-1.2,1.2.419.419,0,1,0,.838,0,.363.363,0,0,1,.362-.362c.319,0,.362.183.362.362,0,.374-.8,1.146-1.386,1.558a.419.419,0,0,0,.242.761h1.817a.419.419,0,1,0,0-.838Z" transform="translate(-400.917 -207.475)" fill="#f5f6fa"/>
      </g>
    </g>
    <g id="Group_265" data-name="Group 265" transform="translate(17.138 16.733)">
      <g id="Group_264" data-name="Group 264">
        <path id="Path_662" data-name="Path 662" d="M410.441,390.913a1.091,1.091,0,0,0-1.089-1.089h-.517a.419.419,0,0,0,0,.838h.517a.251.251,0,1,1,0,.5h-.517a.419.419,0,0,0,0,.838h.517a.251.251,0,0,1,0,.5h-.517a.419.419,0,1,0,0,.838h.517a11.036,11.036,0,0,0,1.089-2.43Z" transform="translate(-408.416 -389.824)" fill="#f5f6fa"/>
      </g>
    </g>
    <g id="Group_267" data-name="Group 267" transform="translate(3.579 7.766)">
      <g id="Group_266" data-name="Group 266">
        <path id="Path_663" data-name="Path 663" d="M103.04,178.5a.419.419,0,1,0-.8.242,2.514,2.514,0,1,1-1.613-1.658.419.419,0,1,0,.264-.8,3.335,3.335,0,0,0-3.363.748H88.852v-.3a.419.419,0,0,0-.715-.3l-2.73,2.73a.419.419,0,0,0,0,.593l2.73,2.73a.419.419,0,0,0,.715-.3v-.3H97.52a3.351,3.351,0,0,0,5.519-3.4Zm-6.162,2.559H88.433a.419.419,0,0,0-.353.193L86.3,179.468l1.785-1.785a.419.419,0,0,0,.353.193h8.449a3.362,3.362,0,0,0,0,3.184Z" transform="translate(-85.284 -176.118)" fill="#f5f6fa"/>
      </g>
    </g>
    <g id="Group_269" data-name="Group 269" transform="translate(8.171 0.392)">
      <g id="Group_268" data-name="Group 268">
        <path id="Path_664" data-name="Path 664" d="M207.893,2.776a.419.419,0,1,0-.8.242,2.514,2.514,0,1,1-1.613-1.658.419.419,0,1,0,.264-.8,3.335,3.335,0,0,0-3.366.751H198.3v-.3a.419.419,0,0,0-.715-.3l-2.73,2.73a.419.419,0,0,0,0,.593l2.73,2.73a.419.419,0,0,0,.715-.3v-.3h4.079a3.351,3.351,0,0,0,5.516-3.4ZM197.879,5.338a.419.419,0,0,0-.353.193l-1.785-1.785,1.785-1.785a.419.419,0,0,0,.353.193h3.854a3.362,3.362,0,0,0,0,3.184h-3.854Z" transform="translate(-194.73 -0.392)" fill="#f5f6fa"/>
      </g>
    </g>
  </g>
</svg>
