<svg id="home-mobile" xmlns="http://www.w3.org/2000/svg" width="17.938" height="17.05" viewBox="0 0 17.938 17.05">
  <g id="Group_44" data-name="Group 44" transform="translate(0)">
    <g id="Group_43" data-name="Group 43">
      <path id="Path_529" data-name="Path 529" d="M17.637,20.25,9.589,12.917a.916.916,0,0,0-1.239,0L.3,20.251a.92.92,0,0,0,.62,1.6H2.206V29.2a.528.528,0,0,0,.528.528H7.145a.528.528,0,0,0,.528-.528V24.737h2.593V29.2a.528.528,0,0,0,.528.528H15.2a.528.528,0,0,0,.528-.528V21.85h1.286a.92.92,0,0,0,.619-1.6Z" transform="translate(0 -12.675)" fill="#1e272e"/>
    </g>
  </g>
  <g id="Group_46" data-name="Group 46" transform="translate(12.051 1.053)">
    <g id="Group_45" data-name="Group 45" transform="translate(0 0)">
      <path id="Path_530" data-name="Path 530" d="M347.516,42.73h-3.543l4.07,3.7V43.257A.528.528,0,0,0,347.516,42.73Z" transform="translate(-343.973 -42.73)" fill="#1e272e"/>
    </g>
  </g>
</svg>
