<svg xmlns="http://www.w3.org/2000/svg" width="19.04" height="16.152" viewBox="0 0 19.04 16.152">
  <g id="learners" transform="translate(-284 -396)">
    <g id="Group_243" data-name="Group 243" transform="translate(298.819 404.721)">
      <g id="Group_61" data-name="Group 61" transform="translate(0 0)">
        <path id="Path_537" data-name="Path 537" d="M399.966,273.32h-1.472a3.83,3.83,0,0,1,.232,1.317V280.2a1.642,1.642,0,0,1-.095.55h2.434a1.651,1.651,0,0,0,1.649-1.649v-3.034A2.752,2.752,0,0,0,399.966,273.32Z" transform="translate(-398.494 -273.32)" fill="#f5f6fa"/>
      </g>
    </g>
    <g id="Group_244" data-name="Group 244" transform="translate(284 404.721)">
      <g id="Group_63" data-name="Group 63">
        <path id="Path_538" data-name="Path 538" d="M3.989,274.638a3.83,3.83,0,0,1,.232-1.317H2.749A2.752,2.752,0,0,0,0,276.07V279.1a1.651,1.651,0,0,0,1.649,1.649H4.084a1.641,1.641,0,0,1-.095-.55Z" transform="translate(0 -273.321)" fill="#f5f6fa"/>
      </g>
    </g>
    <g id="Group_245" data-name="Group 245" transform="translate(289.088 403.287)">
      <g id="Group_65" data-name="Group 65" transform="translate(0 0)">
        <path id="Path_539" data-name="Path 539" d="M142.944,234.815h-3.366a2.752,2.752,0,0,0-2.749,2.749v5.565a.55.55,0,0,0,.55.55h7.764a.55.55,0,0,0,.55-.55v-5.565A2.752,2.752,0,0,0,142.944,234.815Z" transform="translate(-136.829 -234.815)" fill="#f5f6fa"/>
      </g>
    </g>
    <g id="Group_246" data-name="Group 246" transform="translate(290.214 396)">
      <g id="Group_67" data-name="Group 67" transform="translate(0 0)">
        <path id="Path_540" data-name="Path 540" d="M170.419,38.84a3.3,3.3,0,1,0,3.305,3.306A3.309,3.309,0,0,0,170.419,38.84Z" transform="translate(-167.114 -38.84)" fill="#f5f6fa"/>
      </g>
    </g>
    <g id="Group_247" data-name="Group 247" transform="translate(285.244 399.082)">
      <g id="Group_69" data-name="Group 69" transform="translate(0 0)">
        <path id="Path_541" data-name="Path 541" d="M35.915,121.689a2.471,2.471,0,1,0,2.472,2.472A2.475,2.475,0,0,0,35.915,121.689Z" transform="translate(-33.443 -121.689)" fill="#f5f6fa"/>
      </g>
    </g>
    <g id="Group_248" data-name="Group 248" transform="translate(296.853 399.082)">
      <g id="Group_71" data-name="Group 71" transform="translate(0 0)">
        <path id="Path_542" data-name="Path 542" d="M348.079,121.689a2.472,2.472,0,1,0,2.472,2.472A2.475,2.475,0,0,0,348.079,121.689Z" transform="translate(-345.607 -121.689)" fill="#f5f6fa"/>
      </g>
    </g>
  </g>
</svg>
