<svg xmlns="http://www.w3.org/2000/svg" width="19.039" height="16.151" viewBox="0 0 19.039 16.151">
  <g id="learners-mobile-disabled" transform="translate(-103 -396)">
    <g id="Group_62" data-name="Group 62" transform="translate(117.819 404.721)">
      <g id="Group_61" data-name="Group 61">
        <path id="Path_537" data-name="Path 537" d="M399.966,273.32h-1.472a3.829,3.829,0,0,1,.232,1.317V280.2a1.642,1.642,0,0,1-.1.55h2.434a1.651,1.651,0,0,0,1.649-1.649v-3.034a2.752,2.752,0,0,0-2.748-2.747Z" transform="translate(-398.494 -273.32)" fill="#a4b0be"/>
      </g>
    </g>
    <g id="Group_64" data-name="Group 64" transform="translate(103 404.721)">
      <g id="Group_63" data-name="Group 63">
        <path id="Path_538" data-name="Path 538" d="M3.989,274.638a3.83,3.83,0,0,1,.232-1.317H2.749A2.752,2.752,0,0,0,0,276.07v3.03a1.651,1.651,0,0,0,1.649,1.649H4.084a1.641,1.641,0,0,1-.1-.55Z" transform="translate(0 -273.321)" fill="#a4b0be"/>
      </g>
    </g>
    <g id="Group_66" data-name="Group 66" transform="translate(108.088 403.287)">
      <g id="Group_65" data-name="Group 65">
        <path id="Path_539" data-name="Path 539" d="M142.944,234.815h-3.366a2.752,2.752,0,0,0-2.749,2.749v5.565a.55.55,0,0,0,.55.55h7.764a.55.55,0,0,0,.55-.55v-5.565A2.752,2.752,0,0,0,142.944,234.815Z" transform="translate(-136.829 -234.815)" fill="#a4b0be"/>
      </g>
    </g>
    <g id="Group_68" data-name="Group 68" transform="translate(109.214 396)">
      <g id="Group_67" data-name="Group 67">
        <path id="Path_540" data-name="Path 540" d="M170.419,38.84a3.3,3.3,0,1,0,3.3,3.306,3.3,3.3,0,0,0-3.3-3.306Z" transform="translate(-167.114 -38.84)" fill="#a4b0be"/>
      </g>
    </g>
    <g id="Group_70" data-name="Group 70" transform="translate(104.244 399.082)">
      <g id="Group_69" data-name="Group 69">
        <path id="Path_541" data-name="Path 541" d="M35.915,121.689a2.471,2.471,0,1,0,2.472,2.472A2.471,2.471,0,0,0,35.915,121.689Z" transform="translate(-33.443 -121.689)" fill="#a4b0be"/>
      </g>
    </g>
    <g id="Group_72" data-name="Group 72" transform="translate(115.853 399.082)">
      <g id="Group_71" data-name="Group 71">
        <path id="Path_542" data-name="Path 542" d="M348.079,121.689a2.472,2.472,0,1,0,2.472,2.472,2.472,2.472,0,0,0-2.472-2.472Z" transform="translate(-345.607 -121.689)" fill="#a4b0be"/>
      </g>
    </g>
  </g>
</svg>
