<svg xmlns="http://www.w3.org/2000/svg" width="29.683" height="22.073" viewBox="0 0 29.683 22.073">
  <g id="logout" transform="translate(0 -42.299)">
    <path id="XMLID_4_" d="M4.606,111.747H20.238a1.349,1.349,0,1,0,0-2.7H4.606L6.351,107.3A1.349,1.349,0,1,0,4.443,105.4L.4,109.443c-.031.031-.061.064-.089.1l-.019.026c-.021.026-.041.052-.059.08l-.015.025c-.019.029-.037.058-.053.089l-.009.018c-.017.033-.033.066-.048.1l0,.013c-.015.036-.028.073-.04.111,0,0,0,.01,0,.015-.011.037-.021.075-.029.113,0,.011,0,.023-.005.035-.006.032-.011.064-.014.1a1.331,1.331,0,0,0,0,.269c0,.033.009.065.014.1,0,.011,0,.023.005.034.008.039.018.077.029.114l0,.014c.012.038.025.075.04.112l0,.012c.014.035.031.068.048.1l.009.018c.017.031.035.06.054.089l.015.024c.019.028.039.054.06.08l.019.026c.028.034.058.067.089.1L4.443,115.4a1.349,1.349,0,1,0,1.908-1.908Z" transform="translate(0 -57.062)" fill="#a4b0be"/>
    <path id="XMLID_5_" d="M112.24,42.3a11.029,11.029,0,0,0-9.166,4.887,1.349,1.349,0,0,0,2.24,1.505A8.338,8.338,0,1,1,105.325,58a1.349,1.349,0,0,0-2.236,1.511A11.037,11.037,0,1,0,112.24,42.3Z" transform="translate(-93.594)" fill="#a4b0be"/>
  </g>
</svg>
