<svg xmlns="http://www.w3.org/2000/svg" width="14.361" height="19.148" viewBox="0 0 14.361 19.148">
  <g id="subject-disabled" transform="translate(0 -0.001)">
    <g id="Group_47" data-name="Group 47" transform="translate(0 0.001)">
      <path id="Path_531" data-name="Path 531" d="M77.809,0H65.657A1.659,1.659,0,0,0,64,1.657V17.491a1.659,1.659,0,0,0,1.657,1.657H77.809a.552.552,0,0,0,.552-.552V.552A.552.552,0,0,0,77.809,0ZM66.762,2.394H75.6a.552.552,0,1,1,0,1.1H66.762a.552.552,0,0,1,0-1.1Zm0,2.946H71.2a.552.552,0,0,1,0,1.1H66.762a.552.552,0,0,1,0-1.1Zm10.495,12.7h-11.6a.553.553,0,0,1-.552-.552v-.737H77.257Z" transform="translate(-64 0)" fill="#a4b0be"/>
    </g>
  </g>
</svg>
