<svg id="teach-mobile-disabled" xmlns="http://www.w3.org/2000/svg" width="19.04" height="19.04" viewBox="0 0 19.04 19.04">
  <g id="Group_49" data-name="Group 49" transform="translate(14.578 12.346)">
    <g id="Group_48" data-name="Group 48">
      <path id="Path_532" data-name="Path 532" d="M393.116,332a1.134,1.134,0,0,0-1.026.669c-.011.034-.022.078-.034.112a1.113,1.113,0,1,0,1.06-.781Z" transform="translate(-392 -332)" fill="#a4b0be"/>
    </g>
  </g>
  <g id="Group_51" data-name="Group 51">
    <g id="Group_50" data-name="Group 50">
      <path id="Path_533" data-name="Path 533" d="M13.417,8.843a1.682,1.682,0,0,1-1.629,1.272H8.925v1.417a2.511,2.511,0,0,1,1.19-.3,2.237,2.237,0,0,1,2.231,2.231h1.116a2.237,2.237,0,0,1,2.231-2.231,2.266,2.266,0,0,1,1.9,1.049,2.33,2.33,0,0,1,.335,1.082,1.668,1.668,0,0,0,1.116-1.573V1.673A1.671,1.671,0,0,0,17.367,0H1.673A1.671,1.671,0,0,0,0,1.673V18.482a.552.552,0,0,0,.558.558H19.04V17.924H17.924a2.231,2.231,0,0,0-4.463,0H12.346a2.238,2.238,0,0,0-2.231-2.231,2.3,2.3,0,0,0-2.306,2.231H6.694a2.231,2.231,0,1,0-4.463,0H1.116A3.374,3.374,0,0,1,2.845,14.99a2.169,2.169,0,0,1-.614-1.528,2.231,2.231,0,0,1,4.463,0A2.169,2.169,0,0,1,6.08,14.99a3.511,3.511,0,0,1,1.171,1.082A3.512,3.512,0,0,1,8.423,14.99a2.169,2.169,0,0,1-.614-1.528,2.743,2.743,0,0,1,.022-.312A.563.563,0,0,1,7.809,13V9.557A.552.552,0,0,1,8.367,9h3.421a.572.572,0,0,0,.547-.424l1.116-4.463a.561.561,0,0,0-.837-.614.622.622,0,0,0-.257.346l-.9,3.615a.55.55,0,0,1-.536.424H5.02A2.775,2.775,0,0,1,2.9,6.9a2.715,2.715,0,0,1-.669-1.807A2.855,2.855,0,0,1,5.02,2.231,2.855,2.855,0,0,1,7.809,5.095a2.793,2.793,0,0,1-.558,1.673h3.232l.792-3.191a1.725,1.725,0,0,1,.77-1.037,1.787,1.787,0,0,1,1.272-.264,1.764,1.764,0,0,1,1.216,2.1Z" fill="#a4b0be"/>
    </g>
  </g>
  <g id="Group_53" data-name="Group 53" transform="translate(3.347 12.346)">
    <g id="Group_52" data-name="Group 52">
      <path id="Path_534" data-name="Path 534" d="M91.116,332a1.116,1.116,0,1,0,1.116,1.116A1.119,1.119,0,0,0,91.116,332Z" transform="translate(-90 -332)" fill="#a4b0be"/>
    </g>
  </g>
  <g id="Group_55" data-name="Group 55" transform="translate(8.925 12.346)">
    <g id="Group_54" data-name="Group 54">
      <path id="Path_535" data-name="Path 535" d="M242.25,332.781c-.011-.033-.022-.078-.034-.112A1.134,1.134,0,0,0,241.19,332a1.118,1.118,0,1,0,0,2.231,1.1,1.1,0,0,0,1.06-1.45Z" transform="translate(-240 -332)" fill="#a4b0be"/>
    </g>
  </g>
  <g id="Group_57" data-name="Group 57" transform="translate(3.347 3.421)">
    <g id="Group_56" data-name="Group 56">
      <path id="Path_536" data-name="Path 536" d="M91.673,92a1.673,1.673,0,1,0,1.673,1.673A1.671,1.671,0,0,0,91.673,92Z" transform="translate(-90 -92)" fill="#a4b0be"/>
    </g>
  </g>
</svg>
